<?xml version="1.0" standalone="no"?>
<!DOCTYPE svg PUBLIC "-//W3C//DTD SVG 1.1//EN" "http://www.w3.org/Graphics/SVG/1.1/DTD/svg11.dtd" >
<svg xmlns="http://www.w3.org/2000/svg" xmlns:xlink="http://www.w3.org/1999/xlink" version="1.1">
<metadata>
Created by FontForge 20170731 at Sat Aug 18 09:51:52 2018
 By Aleksey,,,
Copyright (c) 2018 by Piotr ?apa. All rights reserved.
</metadata>
<defs>
<font id="GilmerHeavy" horiz-adv-x="1507" >
  <font-face 
    font-family="Gilmer Heavy"
    font-weight="800"
    font-stretch="normal"
    units-per-em="2048"
    panose-1="0 0 9 0 0 0 0 0 0 0"
    ascent="1618"
    descent="-430"
    x-height="1044"
    cap-height="1434"
    bbox="-866 -557 3062 2015"
    underline-thickness="0"
    underline-position="0"
    unicode-range="U+0020-FB02"
  />
<missing-glyph horiz-adv-x="1024" 
d="M840 1618v-2048h-650v2048h650zM682 1481h-338v-68h133v-76h-135v-67h340v67h-135v76h135v68zM547 1217h-205v-213h340v69h-135v144zM477 1147v-74h-67v74h67zM682 948h-340v-67h135v-76h-135v-68h205v144h135v67zM682 825h-68v-135h-272v-69h340v204zM682 575h-205v-114
h70v47h67v-96h-204v163h-68v-231h340v231zM682 221h-340v-231h340v231zM614 154v-97h-204v97h204zM682 -57h-340v-68h143l-143 -96v-68h340v68h-209l143 96h66v68z" />
    <glyph glyph-name="uniFB01" unicode="fi" horiz-adv-x="1341" 
d="M1245 1044v-1044h-327v758h-369v-758h-328v758h-190v286h190v74q0 188 112.5 297t325.5 109q223 0 381 -90l-77 -260q-133 68 -265 67q-61 0 -105 -33.5t-44 -89.5v-74h696z" />
    <glyph glyph-name="uniFB02" unicode="fl" horiz-adv-x="1368" 
d="M666 1524q336 0 579 -142v-1382h-327v1204q-96 37 -218 37q-63 0 -107 -33.5t-44 -89.5v-74h246v-286h-246v-758h-328v758h-190v286h190v74q0 188 114 297t331 109z" />
    <glyph glyph-name="f_f.liga" unicode="ff" horiz-adv-x="1550" 
d="M1245 1118v-74h287v-286h-287v-758h-327v758h-369v-758h-328v758h-190v286h190v74q0 188 100.5 297t286.5 109q145 0 246 -45l-78 -260q-53 23 -117 22q-51 0 -80.5 -32.5t-29.5 -90.5v-74h369v74q0 188 100 297t287 109q145 0 245 -45l-77 -260q-53 23 -117 22
q-51 0 -81 -33t-30 -90z" />
    <glyph glyph-name="f_f_i.liga" unicode="ffi" horiz-adv-x="2037" 
d="M1942 1044v-1044h-328v758h-369v-758h-327v758h-369v-758h-328v758h-190v286h190v74q0 188 105.5 297t302.5 109q145 0 245 -45l-77 -260q-53 23 -117 22q-53 0 -92 -33.5t-39 -89.5v-74h369v74q0 188 112.5 297t325.5 109q223 0 381 -90l-78 -260q-133 68 -264 67
q-61 0 -105.5 -33.5t-44.5 -89.5v-74h697z" />
    <glyph glyph-name="f_f_l.liga" unicode="ffl" horiz-adv-x="2064" 
d="M1362 1524q336 0 580 -142v-1382h-328v1204q-96 37 -217 37q-63 0 -107.5 -33.5t-44.5 -89.5v-74h246v-286h-246v-758h-327v758h-369v-758h-328v758h-190v286h190v74q0 188 105.5 297t302.5 109q145 0 245 -45l-77 -260q-53 23 -117 22q-59 0 -95 -32.5t-36 -90.5v-74
h369v74q0 188 113.5 297t330.5 109z" />
    <glyph glyph-name=".notdef" horiz-adv-x="1024" 
d="M840 1618v-2048h-650v2048h650zM682 1481h-338v-68h133v-76h-135v-67h340v67h-135v76h135v68zM547 1217h-205v-213h340v69h-135v144zM477 1147v-74h-67v74h67zM682 948h-340v-67h135v-76h-135v-68h205v144h135v67zM682 825h-68v-135h-272v-69h340v204zM682 575h-205v-114
h70v47h67v-96h-204v163h-68v-231h340v231zM682 221h-340v-231h340v231zM614 154v-97h-204v97h204zM682 -57h-340v-68h143l-143 -96v-68h340v68h-209l143 96h66v68z" />
    <glyph glyph-name="glyph1" horiz-adv-x="0" 
 />
    <glyph glyph-name="glyph2" horiz-adv-x="681" 
 />
    <glyph glyph-name="space" unicode=" " horiz-adv-x="491" 
 />
    <glyph glyph-name="exclam" unicode="!" horiz-adv-x="591" 
d="M164 502l-43 932h352l-43 -932h-266zM297 -16q-82 0 -138.5 55t-56.5 137q0 78 56.5 132t138.5 54q80 0 136 -54t56 -132q0 -82 -56 -137t-136 -55z" />
    <glyph glyph-name="quotedbl" unicode="&#x22;" horiz-adv-x="839" 
d="M119 928l-37 506h303l-37 -506h-229zM492 928l-37 506h303l-37 -506h-229z" />
    <glyph glyph-name="numbersign" unicode="#" horiz-adv-x="1484" 
d="M1405 801h-264l-35 -230h264l-39 -243h-264l-51 -328h-266l51 328h-230l-51 -328h-266l51 328h-264l39 243h264l35 230h-264l39 243h264l53 338h266l-53 -338h229l54 338h266l-53 -338h264zM840 571l34 230h-229l-35 -230h230z" />
    <glyph glyph-name="dollar" unicode="$" horiz-adv-x="1374" 
d="M1303 426q0 -176 -134.5 -300t-355.5 -149v-274h-278v287q-184 41 -311.5 155.5t-182.5 260.5l324 100q43 -106 139 -172t231 -66q100 0 161.5 40t61.5 95q0 88 -153 138l-369 114q-150 47 -240 145.5t-87 233.5q-2 158 116.5 275.5t309.5 144.5v277h278v-287
q168 -37 290 -135.5t169 -223.5l-314 -92q-43 76 -128 124t-187 48q-86 0 -138 -33.5t-52 -84.5q0 -74 96 -103l360 -115q188 -59 291 -148t103 -255z" />
    <glyph glyph-name="percent" unicode="%" horiz-adv-x="2193" 
d="M502 612q-180 0 -305 121t-125 297t123.5 297t306 121t306.5 -121t124 -297t-124 -297t-306 -121zM504 0l930 1434h254l-928 -1434h-256zM502 848q80 0 132 53t52 129q0 78 -52 130t-132 52t-132.5 -52t-52.5 -130q0 -76 52.5 -129t132.5 -53zM1692 -16
q-180 0 -305 120.5t-125 297t123.5 297t306 120.5t306.5 -120.5t124 -297t-124 -297t-306 -120.5zM1692 219q80 0 132 53.5t52 128.5q0 78 -52 130.5t-132 52.5t-132.5 -52.5t-52.5 -130.5q0 -76 52.5 -129t132.5 -53z" />
    <glyph glyph-name="ampersand" unicode="&#x26;" horiz-adv-x="1492" 
d="M1493 0h-395l-109 115q-190 -145 -411 -146q-197 0 -336.5 120t-139.5 310q0 117 63.5 224.5t186.5 183.5q-98 127 -98 242q0 197 129 305t346 108q176 0 300 -102.5t142 -245.5l-292 -84q-12 66 -54.5 106t-103.5 40q-66 0 -104.5 -37t-38.5 -95q0 -14 5 -30.5t9 -27.5
t16.5 -27.5t16.5 -21.5t18 -24l16 -16l316 -340q53 98 74 195l286 -82q-35 -172 -147 -340zM614 266q86 0 177 64l-252 270q-109 -76 -109 -172q0 -68 50 -115t134 -47z" />
    <glyph glyph-name="quotesingle" unicode="'" horiz-adv-x="466" 
d="M119 928l-37 506h303l-37 -506h-229z" />
    <glyph glyph-name="parenleft" unicode="(" horiz-adv-x="665" 
d="M645 -276h-317q-231 377 -236 901q-4 514 236 901h317q-236 -387 -236 -901t236 -901z" />
    <glyph glyph-name="parenright" unicode=")" horiz-adv-x="665" 
d="M20 -276q236 387 236 901t-236 901h318q240 -387 235 -901q-4 -524 -235 -901h-318z" />
    <glyph glyph-name="asterisk" unicode="*" horiz-adv-x="876" 
d="M795 1206l-193 -100l193 -100l-93 -158l-182 117l10 -217h-184l10 217l-182 -117l-92 158l192 100l-192 100l92 158l182 -115l-10 215h184l-10 -215l182 115z" />
    <glyph glyph-name="plus" unicode="+" horiz-adv-x="1146" 
d="M1034 846v-256h-332v-332h-256v332h-333v256h333v334h256v-334h332z" />
    <glyph glyph-name="comma" unicode="," horiz-adv-x="591" 
d="M82 -281l90 605h338l-174 -605h-254z" />
    <glyph glyph-name="hyphen" unicode="-" horiz-adv-x="983" 
d="M113 492v266h757v-266h-757z" />
    <glyph glyph-name="period" unicode="." horiz-adv-x="550" 
d="M276 -16q-82 0 -138 55t-56 137q0 78 56.5 132t137.5 54q80 0 136.5 -54t56.5 -132q0 -82 -56.5 -137t-136.5 -55z" />
    <glyph glyph-name="slash" unicode="/" horiz-adv-x="1165" 
d="M51 -186l811 1804h252l-811 -1804h-252z" />
    <glyph glyph-name="zero" unicode="0" horiz-adv-x="1341" 
d="M671.5 -29q-284.5 0 -447.5 207t-163 539t163 538.5t447.5 206.5t446.5 -206.5t162 -538.5t-162 -539t-446.5 -207zM672 279q135 0 201.5 115.5t66.5 322.5t-66.5 322.5t-201.5 115.5t-203 -115.5t-68 -322.5t68 -322.5t203 -115.5z" />
    <glyph glyph-name="one" unicode="1" horiz-adv-x="913" 
d="M469 1434h291v-1434h-344v1059l-303 -139l-82 288z" />
    <glyph glyph-name="two" unicode="2" horiz-adv-x="1214" 
d="M592 307h541v-307h-1063v227l553 514q80 72 116.5 126.5t36.5 115.5q0 82 -49 129t-135 47q-84 0 -144.5 -58.5t-80.5 -154.5l-306 88q23 176 167.5 302t355.5 126q240 0 385 -119.5t145 -338.5q0 -129 -62.5 -233.5t-195.5 -225.5z" />
    <glyph glyph-name="three" unicode="3" horiz-adv-x="1247" 
d="M823 895q154 -37 248 -148.5t94 -279.5q0 -209 -151.5 -352.5t-376.5 -143.5q-254 0 -399.5 132.5t-176.5 318.5l301 86q18 -98 89 -170t165 -72q102 0 162 59.5t60 141.5t-57.5 140.5t-157.5 58.5q-76 0 -129 -27l-56 197l232 294h-564v304h1010v-224z" />
    <glyph glyph-name="four" unicode="4" horiz-adv-x="1277" 
d="M1237 557v-299h-170v-258h-340v258h-666v246l474 930h364l-440 -877h268v258h340v-258h170z" />
    <glyph glyph-name="five" unicode="5" horiz-adv-x="1226" 
d="M682 944q205 0 339 -138t134 -339q0 -211 -149.5 -353.5t-376.5 -142.5q-231 0 -375.5 115t-192.5 285l306 86q29 -82 94 -136.5t145 -54.5q102 0 161.5 58.5t59.5 148.5t-58 147.5t-165 57.5q-125 0 -213 -62l-270 80l61 738h908v-304h-607l-16 -221q98 35 215 35z" />
    <glyph glyph-name="six" unicode="6" horiz-adv-x="1220" 
d="M662 991q223 -16 365 -155.5t142 -348.5q0 -221 -159.5 -368.5t-399 -147.5t-399.5 146.5t-160 369.5q0 143 101 304l407 643h383zM610.5 274q100.5 0 160.5 59.5t60 153.5q0 90 -60 150.5t-161 60.5q-98 0 -159.5 -60t-61.5 -151q0 -94 60.5 -153.5t161 -59.5z" />
    <glyph glyph-name="seven" unicode="7" horiz-adv-x="1124" 
d="M31 1434h1052v-232l-524 -1202h-360l495 1126h-663v308z" />
    <glyph glyph-name="eight" unicode="8" horiz-adv-x="1261" 
d="M963 782q238 -111 237 -362q0 -190 -157.5 -319.5t-411.5 -129.5q-256 0 -413 128t-157 321q0 254 238 362q-176 94 -176 293q0 164 139 275.5t368.5 111.5t369 -111.5t139.5 -275.5q0 -199 -176 -293zM631 1198q-82 0 -131 -45t-49 -109q0 -66 49 -110.5t131 -44.5
t131 46t49 109.5t-49 108.5t-131 45zM631 254q104 0 165.5 55.5t61.5 139.5q0 86 -61.5 141t-165.5 55q-106 0 -167 -55t-61 -141q0 -84 61 -139.5t167 -55.5z" />
    <glyph glyph-name="nine" unicode="9" horiz-adv-x="1220" 
d="M610.5 1462q239.5 0 399 -146.5t159.5 -369.5q0 -143 -100 -303l-407 -643h-383l280 442q-223 16 -365.5 155.5t-142.5 348.5q0 221 160 368.5t399.5 147.5zM610 735q98 0 159.5 60.5t61.5 150.5q0 94 -60 153.5t-160.5 59.5t-161 -59.5t-60.5 -153.5q0 -90 60.5 -150.5
t160.5 -60.5z" />
    <glyph glyph-name="colon" unicode=":" horiz-adv-x="550" 
d="M276 682q-82 0 -138 55.5t-56 136.5q0 78 56.5 132.5t137.5 54.5q80 0 136.5 -54.5t56.5 -132.5q0 -82 -56.5 -137t-136.5 -55zM276 -16q-82 0 -138 55t-56 137q0 78 56.5 132t137.5 54q80 0 136.5 -54t56.5 -132q0 -82 -56.5 -137t-136.5 -55z" />
    <glyph glyph-name="semicolon" unicode=";" horiz-adv-x="600" 
d="M326 684q-82 0 -138.5 55.5t-56.5 137.5q0 78 56.5 132t138.5 54q80 0 136 -54.5t56 -131.5q0 -82 -56 -137.5t-136 -55.5zM82 -281l90 605h338l-174 -605h-254z" />
    <glyph glyph-name="less" unicode="&#x3c;" horiz-adv-x="1136" 
d="M1014 1214v-276l-619 -219l619 -221v-277l-922 348v297z" />
    <glyph glyph-name="equal" unicode="=" horiz-adv-x="1146" 
d="M113 795v256h921v-256h-921zM113 385v256h921v-256h-921z" />
    <glyph glyph-name="greater" unicode="&#x3e;" horiz-adv-x="1136" 
d="M123 1214l921 -348v-297l-921 -348v277l618 221l-618 219v276z" />
    <glyph glyph-name="question" unicode="?" horiz-adv-x="1177" 
d="M410 502q0 78 34.5 145.5t84 113.5t98.5 89t83.5 89t34.5 93q0 59 -45 95t-120 36q-84 0 -142.5 -62.5t-81.5 -164.5l-295 90q23 182 161 309t359.5 127t362.5 -116.5t141 -296.5q0 -86 -36.5 -161t-89 -125t-104.5 -93t-90 -86t-38 -82h-317zM569 -16q-82 0 -138 55
t-56 137q0 78 56 132t138 54q80 0 136.5 -54t56.5 -132q0 -82 -56.5 -137t-136.5 -55z" />
    <glyph glyph-name="at" unicode="@" horiz-adv-x="1990" 
d="M979 -362q-393 0 -650 256t-257 630q0 252 126 461t341 329t471 120q397 0 653 -254t256 -645q0 -238 -123 -377.5t-311 -139.5q-217 0 -295 166q-109 -121 -256 -121q-186 0 -306 129.5t-120 330t120 330.5t306 130q141 0 242 -111v86h251v-639q0 -115 95 -114
q76 0 126 88t50 239q0 305 -187.5 500t-498.5 195q-303 0 -512 -202t-209 -501q0 -291 197.5 -485.5t496.5 -194.5q254 0 399 119l58 -201q-174 -124 -463 -124zM983 301q90 0 148.5 61.5t58.5 161.5q0 98 -57.5 158.5t-149.5 60.5q-96 0 -154.5 -60t-58.5 -158.5t58.5 -161
t154.5 -62.5z" />
    <glyph glyph-name="A" unicode="A" 
d="M1157 0l-100 274h-606l-101 -274h-350l530 1434h447l530 -1434h-350zM559 571h389l-194 537z" />
    <glyph glyph-name="B" unicode="B" horiz-adv-x="1423" 
d="M1139 750q223 -109 223 -340q0 -193 -134 -301.5t-368 -108.5h-737v1434h700q219 0 353.5 -107.5t134.5 -282.5q0 -196 -172 -294zM823 1143h-368v-287h368q68 0 112 43t44 104.5t-44 101.5t-112 38zM860 293q76 0 120 42t44 107q0 68 -43 108t-121 40h-405v-297h405z
" />
    <glyph glyph-name="C" unicode="C" horiz-adv-x="1583" 
d="M825 -29q-326 0 -541.5 213t-215.5 533q0 317 215 531t536 214q285 0 470.5 -145.5t232.5 -335.5l-332 -82q-29 98 -129 171t-240 73q-182 0 -293.5 -123t-111.5 -301q0 -176 112.5 -302t292.5 -126q141 0 240.5 70.5t128.5 168.5l332 -84q-47 -188 -231.5 -331.5
t-465.5 -143.5z" />
    <glyph glyph-name="D" unicode="D" horiz-adv-x="1529" 
d="M784 1434q303 0 490.5 -199t187.5 -518q0 -315 -186 -516t-492 -201h-661v1434h661zM776 305q147 0 244.5 116t97.5 302q0 184 -97 294.5t-245 110.5h-317v-823h317z" />
    <glyph glyph-name="E" unicode="E" horiz-adv-x="1284" 
d="M1202 1126h-747v-249h643v-297h-643v-273h745v-307h-1077v1434h1079v-308z" />
    <glyph glyph-name="F" unicode="F" horiz-adv-x="1220" 
d="M1190 1124h-727v-284h622v-303h-622v-537h-340v1434h1067v-310z" />
    <glyph glyph-name="G" unicode="G" horiz-adv-x="1636" 
d="M1569 815v-170q0 -295 -201 -484.5t-528 -189.5q-334 0 -553 214t-219 531.5t217 531.5t538 214q260 0 443.5 -127t255.5 -317l-316 -90q-113 215 -379 215q-182 0 -298.5 -123t-116.5 -301t119.5 -305t334.5 -127q145 0 234.5 69.5t111.5 167.5l-376 -2v293h733z" />
    <glyph glyph-name="H" unicode="H" horiz-adv-x="1490" 
d="M1028 1434h340v-1434h-340v575h-565v-575h-340v1434h340v-551h565v551z" />
    <glyph glyph-name="I" unicode="I" horiz-adv-x="589" 
d="M123 0v1434h344v-1434h-344z" />
    <glyph glyph-name="J" unicode="J" horiz-adv-x="1282" 
d="M1169 1434v-945q0 -238 -151.5 -378t-403.5 -140q-215 0 -361.5 105.5t-211.5 288.5l317 92q59 -190 250 -191q102 0 162.5 66.5t60.5 167.5v637h-628v297h966z" />
    <glyph glyph-name="K" unicode="K" horiz-adv-x="1464" 
d="M1042 0l-401 563l-178 -201v-362h-340v1434h340v-623l520 623h430l-549 -619l590 -815h-412z" />
    <glyph glyph-name="L" unicode="L" horiz-adv-x="1177" 
d="M463 311h674v-311h-1014v1434h340v-1123z" />
    <glyph glyph-name="M" unicode="M" horiz-adv-x="1767" 
d="M1321 1434h324v-1434h-340v840l-422 -576l-420 576v-840h-340v1434h323l439 -637z" />
    <glyph glyph-name="N" unicode="N" 
d="M1044 1434h340v-1434h-276l-645 821v-821h-340v1434h276l645 -822v822z" />
    <glyph glyph-name="O" unicode="O" horiz-adv-x="1654" 
d="M827.5 -29q-327.5 0 -543.5 213t-216 532.5t216 532.5t543.5 213t543.5 -213t216 -532.5t-216 -532.5t-543.5 -213zM827.5 285q186.5 0 301 122.5t114.5 309t-114.5 309.5t-301 123t-301 -123t-114.5 -309.5t114.5 -309t301 -122.5z" />
    <glyph glyph-name="P" unicode="P" horiz-adv-x="1357" 
d="M813 1434q229 0 371.5 -158t142.5 -358q0 -203 -144.5 -360t-383.5 -157h-340v-401h-336v1434h690zM791 705q90 0 148 63t58 147t-55 147.5t-137 63.5h-346v-421h332z" />
    <glyph glyph-name="Q" unicode="Q" horiz-adv-x="1642" 
d="M1575 0h-332l-59 68q-174 -96 -367 -97q-311 0 -530 215t-219 530.5t219 530.5t530 215t530.5 -215t219.5 -530q0 -274 -181 -486zM817 283q84 0 154 24l-316 359h379l146 -181q55 104 55 232q0 193 -115.5 313.5t-302 120.5t-302.5 -121t-116 -313.5t116 -313
t302 -120.5z" />
    <glyph glyph-name="R" unicode="R" horiz-adv-x="1441" 
d="M1010 0l-305 471h-246v-471h-336v1434h717q227 0 367.5 -146.5t140.5 -337.5q0 -141 -77 -260t-216 -176l346 -514h-391zM459 1130v-362h356q88 0 145.5 53t57.5 129q0 74 -55.5 127t-133.5 53h-370z" />
    <glyph glyph-name="S" unicode="S" horiz-adv-x="1374" 
d="M725 -29q-254 0 -430 126t-244 309l324 100q43 -106 139 -172t231 -66q100 0 162 40t62 95q0 88 -154 138l-369 114q-150 47 -239.5 145.5t-87.5 233.5q-2 178 149.5 303t380.5 125q227 0 400.5 -109.5t232.5 -267.5l-313 -92q-43 76 -128 124t-188 48q-86 0 -138 -33.5
t-52 -84.5q0 -74 96 -103l361 -115q188 -59 290.5 -148t102.5 -255q0 -195 -163 -325t-425 -130z" />
    <glyph glyph-name="T" unicode="T" horiz-adv-x="1314" 
d="M1284 1434v-308h-457v-1126h-340v1126h-456v308h1253z" />
    <glyph glyph-name="U" unicode="U" horiz-adv-x="1499" 
d="M1042 1434h344v-838q0 -283 -167.5 -454t-468.5 -171q-303 0 -470 171t-167 454v838h344v-832q0 -143 74.5 -231t218 -88t218 88t74.5 231v832z" />
    <glyph glyph-name="V" unicode="V" horiz-adv-x="1490" 
d="M1116 1434h375l-559 -1434h-373l-559 1434h377l368 -998z" />
    <glyph glyph-name="W" unicode="W" horiz-adv-x="2066" 
d="M1708 1434h358l-428 -1434h-360l-244 852l-246 -852h-360l-428 1434h358l258 -947l265 947h305l264 -947z" />
    <glyph glyph-name="X" unicode="X" horiz-adv-x="1474" 
d="M1464 0h-409l-318 459l-317 -459h-410l504 721l-491 713h409l305 -449l305 449h410l-491 -713z" />
    <glyph glyph-name="Y" unicode="Y" horiz-adv-x="1415" 
d="M1034 1434h381l-534 -918v-516h-344v516l-537 918h383l326 -586z" />
    <glyph glyph-name="Z" unicode="Z" horiz-adv-x="1306" 
d="M535 301h710v-301h-1184v227l697 906h-686v301h1153v-232z" />
    <glyph glyph-name="bracketleft" unicode="[" horiz-adv-x="716" 
d="M676 1239h-236v-1229h236v-286h-553v1802h553v-287z" />
    <glyph glyph-name="backslash" unicode="\" horiz-adv-x="1165" 
d="M1114 -186h-252l-811 1804h252z" />
    <glyph glyph-name="bracketright" unicode="]" horiz-adv-x="716" 
d="M594 1526v-1802h-553v286h235v1229h-235v287h553z" />
    <glyph glyph-name="asciicircum" unicode="^" horiz-adv-x="1239" 
d="M1178 778h-326l-231 422l-234 -422h-326l398 717h323z" />
    <glyph glyph-name="underscore" unicode="_" horiz-adv-x="1269" 
d="M72 -328v246h1126v-246h-1126z" />
    <glyph glyph-name="grave" unicode="`" horiz-adv-x="509" 
d="M510 1204h-277l-233 291h356z" />
    <glyph glyph-name="a" unicode="a" horiz-adv-x="1320" 
d="M569 -29q-213 0 -360.5 158t-147.5 393.5t147.5 393t360.5 157.5q186 0 301 -125v96h328v-1044h-328v96q-119 -125 -301 -125zM629 262q109 0 179.5 73t70.5 189q0 115 -71 186.5t-179 71.5q-106 0 -175 -71.5t-69 -186.5q0 -117 69 -189.5t175 -72.5z" />
    <glyph glyph-name="b" unicode="b" horiz-adv-x="1320" 
d="M752 1073q213 0 360.5 -157.5t147.5 -393t-147.5 -393.5t-360.5 -158q-182 0 -301 125v-96h-328v1495h328v-547q115 125 301 125zM692 262q106 0 175 73t69 189q0 115 -68.5 186.5t-175.5 71.5q-109 0 -179.5 -71.5t-70.5 -186.5q0 -117 70.5 -189.5t179.5 -72.5z" />
    <glyph glyph-name="c" unicode="c" horiz-adv-x="1189" 
d="M621 -29q-242 0 -401 158t-159 393.5t158 393t397 157.5q209 0 349.5 -108.5t173.5 -245.5l-303 -86q-14 61 -74 106t-144 45q-106 0 -171.5 -75.5t-65.5 -184t65.5 -186.5t171.5 -78q84 0 143.5 44t74.5 104l303 -86q-33 -137 -172 -244t-346 -107z" />
    <glyph glyph-name="d" unicode="d" horiz-adv-x="1320" 
d="M870 1495h328v-1495h-328v96q-119 -125 -301 -125q-213 0 -360.5 158t-147.5 393.5t147.5 393t360.5 157.5q186 0 301 -125v547zM629 262q109 0 179.5 73t70.5 189q0 115 -71 186.5t-179 71.5q-106 0 -175 -71.5t-69 -186.5q0 -117 69 -189.5t175 -72.5z" />
    <glyph glyph-name="e" unicode="e" horiz-adv-x="1222" 
d="M635 -29q-256 0 -415 152.5t-159 396.5q0 240 153 396.5t400 156.5q252 0 399.5 -153.5t147.5 -387.5q0 -61 -8 -108h-772q37 -180 260 -180q150 0 209 106l295 -86q-49 -113 -184.5 -203t-325.5 -90zM381 621h461q-8 74 -70.5 126t-159 52t-158 -53t-73.5 -125z" />
    <glyph glyph-name="f" unicode="f" horiz-adv-x="854" 
d="M549 1118v-74h287v-286h-287v-758h-328v758h-190v286h190v74q0 188 100.5 297t286.5 109q145 0 246 -45l-78 -260q-53 23 -117 22q-51 0 -80.5 -33t-29.5 -90z" />
    <glyph glyph-name="g" unicode="g" horiz-adv-x="1310" 
d="M860 1044h328v-1005q0 -221 -149.5 -359.5t-399.5 -138.5q-356 0 -506 273l283 102q70 -109 231 -109q104 0 158.5 63.5t54.5 166.5v100q-115 -125 -289 -125q-221 0 -365.5 152.5t-144.5 378.5q0 238 143.5 384t366.5 146q174 0 289 -125v96zM628.5 305
q108.5 0 174 65.5t65.5 172t-65.5 172t-174 65.5t-176 -65.5t-67.5 -172t67.5 -172t176 -65.5z" />
    <glyph glyph-name="h" unicode="h" horiz-adv-x="1280" 
d="M760 1073q203 0 305 -125t102 -340v-608h-327v543q0 227 -187 227q-94 0 -148 -69.5t-54 -190.5v-510h-328v1495h328v-559q119 137 309 137z" />
    <glyph glyph-name="i" unicode="i" horiz-adv-x="569" 
d="M284.5 1165q-77.5 0 -133 54.5t-55.5 132.5q0 76 55.5 129t133 53t133 -53.5t55.5 -128.5q0 -78 -55.5 -132.5t-133 -54.5zM117 0v1044h327v-1044h-327z" />
    <glyph glyph-name="j" unicode="j" horiz-adv-x="573" 
d="M289 1165q-78 0 -133.5 54.5t-55.5 132.5q0 76 55.5 129t133.5 53t133 -53.5t55 -128.5q0 -78 -55 -132.5t-133 -54.5zM121 -31v1075h328v-1044q0 -217 -95.5 -338t-290.5 -121q-102 0 -206 45l71 250q37 -20 80 -20q113 -1 113 153z" />
    <glyph glyph-name="k" unicode="k" horiz-adv-x="1175" 
d="M807 0l-256 362l-100 -114v-248h-328v1495h328v-833l313 382h377l-387 -446l422 -598h-369z" />
    <glyph glyph-name="l" unicode="l" horiz-adv-x="573" 
d="M123 0v1495h328v-1495h-328z" />
    <glyph glyph-name="m" unicode="m" horiz-adv-x="1914" 
d="M1386 1073q190 0 303 -118.5t113 -338.5v-616h-327v543q0 227 -166 227q-182 0 -183 -252v-518h-327v543q0 227 -166 227q-182 0 -182 -252v-518h-328v1044h328v-102q113 131 288 131q207 0 303 -139q131 139 344 139z" />
    <glyph glyph-name="n" unicode="n" horiz-adv-x="1280" 
d="M760 1073q203 0 305 -125t102 -340v-608h-327v543q0 227 -187 227q-94 0 -148 -69.5t-54 -190.5v-510h-328v1044h328v-108q119 137 309 137z" />
    <glyph glyph-name="o" unicode="o" horiz-adv-x="1245" 
d="M622.5 -29q-243.5 0 -402.5 158t-159 393.5t159 393t402.5 157.5t402.5 -157.5t159 -393t-159 -393.5t-402.5 -158zM622.5 266q110.5 0 177 72t66.5 184.5t-66.5 184t-177 71.5t-177 -71.5t-66.5 -184t66.5 -184.5t177 -72z" />
    <glyph glyph-name="p" unicode="p" horiz-adv-x="1320" 
d="M752 1073q213 0 360.5 -157.5t147.5 -393t-147.5 -393.5t-360.5 -158q-182 0 -301 125v-526h-328v1474h328v-96q115 125 301 125zM692 262q106 0 175 73t69 189q0 115 -68.5 186.5t-175.5 71.5q-109 0 -179.5 -71.5t-70.5 -186.5q0 -117 70.5 -189.5t179.5 -72.5z" />
    <glyph glyph-name="q" unicode="q" horiz-adv-x="1320" 
d="M870 1044h328v-1474h-328v526q-119 -125 -301 -125q-213 0 -360.5 158t-147.5 393.5t147.5 393t360.5 157.5q186 0 301 -125v96zM629 262q109 0 179.5 73t70.5 189q0 115 -71 186.5t-179 71.5q-106 0 -175 -71.5t-69 -186.5q0 -117 69 -189.5t175 -72.5z" />
    <glyph glyph-name="r" unicode="r" horiz-adv-x="819" 
d="M451 903q47 86 131 128t196 28v-307q-168 29 -247.5 -47t-79.5 -269v-436h-328v1044h328v-141z" />
    <glyph glyph-name="s" unicode="s" horiz-adv-x="1073" 
d="M547 -29q-193 0 -337 95.5t-185 228.5l292 86q27 -68 90.5 -110t151.5 -42q59 0 95 22.5t36 53.5q0 51 -98 80l-250 74q-264 80 -264 291q0 137 128 230t306 93q168 0 295 -71.5t178 -194.5l-287 -82q-70 98 -188 98q-45 0 -78 -18.5t-33 -46.5q0 -41 60 -62l241 -67
q72 -20 120 -41t96.5 -55.5t72 -88t23.5 -125.5q0 -152 -130 -250t-335 -98z" />
    <glyph glyph-name="t" unicode="t" horiz-adv-x="847" 
d="M729 295l78 -260q-129 -51 -256 -51q-184 0 -276.5 104.5t-92.5 288.5v381h-162v286h162v328h328v-328h281v-286h-281v-381q0 -109 108 -109q60 0 111 27z" />
    <glyph glyph-name="u" unicode="u" horiz-adv-x="1280" 
d="M829 1044h328v-1044h-328v109q-119 -137 -309 -138q-203 0 -305 125t-102 340v608h327v-542q0 -227 187 -228q94 0 148 70t54 191v509z" />
    <glyph glyph-name="v" unicode="v" horiz-adv-x="1212" 
d="M854 1044h358l-421 -1044h-369l-422 1044h360l246 -671z" />
    <glyph glyph-name="w" unicode="w" horiz-adv-x="1705" 
d="M1368 1044h338l-360 -1044h-304l-188 586l-190 -586h-304l-360 1044h338l190 -626l189 626h272l191 -626z" />
    <glyph glyph-name="x" unicode="x" horiz-adv-x="1142" 
d="M1143 0h-369l-203 285l-202 -285h-369l377 526l-361 518h367l188 -270l189 270h366l-360 -518z" />
    <glyph glyph-name="y" unicode="y" horiz-adv-x="1236" 
d="M887 1044h350l-621 -1474h-333l186 455l14 2l-14 -2l-469 1019h358l273 -636z" />
    <glyph glyph-name="z" unicode="z" horiz-adv-x="1099" 
d="M510 268h518v-268h-950v205l497 571h-485v268h920v-204z" />
    <glyph glyph-name="braceleft" unicode="{" horiz-adv-x="727" 
d="M543 872q0 -78 -35 -147.5t-115 -99.5q80 -31 115 -100.5t35 -147.5v-254q0 -68 21.5 -95.5t80.5 -27.5h41v-287h-129q-332 0 -332 348v316q0 45 -29.5 74.5t-74.5 29.5h-39v287h39q45 0 74.5 29.5t29.5 74.5v316q0 348 332 348h129v-287h-41q-59 0 -80.5 -27.5
t-21.5 -95.5v-254z" />
    <glyph glyph-name="bar" unicode="|" horiz-adv-x="512" 
d="M113 -256v1905h286v-1905h-286z" />
    <glyph glyph-name="braceright" unicode="}" horiz-adv-x="727" 
d="M606 768h39v-287h-39q-45 0 -74.5 -29.5t-29.5 -74.5v-316q0 -348 -332 -348h-129v287h41q59 0 80.5 27.5t21.5 95.5v254q0 78 35 147.5t115 100.5q-80 31 -115 100.5t-35 146.5v254q0 68 -21.5 95.5t-80.5 27.5h-41v287h129q332 0 332 -348v-316q0 -45 29.5 -74.5
t74.5 -29.5z" />
    <glyph glyph-name="asciitilde" unicode="~" horiz-adv-x="1200" 
d="M383 516l-291 84q0 129 67.5 223.5t205.5 94.5q96 0 226 -57.5t152 -57.5q74 0 74 115l291 -84q0 -131 -66.5 -224.5t-201.5 -93.5q-96 0 -227.5 57.5t-153.5 57.5q-76 0 -76 -115z" />
    <glyph glyph-name="exclamdown" unicode="&#xa1;" horiz-adv-x="550" 
d="M274 1061q82 0 138.5 -55.5t56.5 -137.5q0 -78 -56.5 -132t-138.5 -54q-80 0 -136 54.5t-56 131.5q0 82 56 137.5t136 55.5zM408 543l43 -932h-353l43 932h267z" />
    <glyph glyph-name="cent" unicode="&#xa2;" horiz-adv-x="1179" 
d="M618 455q84 0 143.5 44t74.5 103l303 -86q-27 -111 -129.5 -207t-255.5 -129v-213h-277v215q-186 45 -301 191.5t-115 343.5q0 199 115 345t301 189v213h277v-211q156 -33 257 -130t128 -210l-303 -86q-14 61 -74 106.5t-144 45.5q-106 0 -171.5 -76t-65.5 -184.5
t65.5 -186t171.5 -77.5z" />
    <glyph glyph-name="sterling" unicode="&#xa3;" horiz-adv-x="1306" 
d="M551 315h694v-315h-1163v315h133v242h-109v268h109v179q0 219 134 338.5t358 119.5q188 0 317 -114.5t147 -272.5l-305 -88q-35 172 -168 172q-70 0 -108.5 -47t-38.5 -129v-158h457v-268h-457v-242z" />
    <glyph glyph-name="currency" unicode="&#xa4;" horiz-adv-x="1286" 
d="M1120 655q0 -131 -59 -237l174 -172l-182 -183l-170 173q-111 -61 -240 -61.5t-240 61.5l-170 -173l-182 183l174 172q-59 106 -59 237t59 238l-174 172l182 182l170 -172q111 61 240 62q135 0 240 -62l170 172l182 -182l-174 -172q59 -107 59 -238zM641 451
q88 0 147.5 58t61.5 146q-2 88 -61.5 146.5t-147.5 58.5q-86 0 -144.5 -58.5t-58.5 -146.5t58.5 -146t144.5 -58z" />
    <glyph glyph-name="yen" unicode="&#xa5;" horiz-adv-x="1435" 
d="M1425 1434l-430 -738h265v-174h-365l-4 -6v-102h369v-174h-369v-240h-344v240h-352v174h352v102l-4 6h-348v174h247l-432 738h383l326 -586l325 586h381z" />
    <glyph glyph-name="brokenbar" unicode="&#xa6;" horiz-adv-x="512" 
d="M113 911v738h286v-738h-286zM113 -256v737h286v-737h-286z" />
    <glyph glyph-name="section" unicode="&#xa7;" horiz-adv-x="1155" 
d="M942 461q86 -80 86 -215q0 -154 -129 -254.5t-330 -100.5q-184 0 -319 92.5t-168 217.5l283 86q59 -143 221 -137q55 2 90 27.5t35 53.5q0 49 -97 78l-254 78q-270 82 -270 299q0 145 150 234q-92 82 -93 213q0 141 124 235t298 94q162 0 284 -70.5t169 -191.5l-287 -82
q-55 90 -166 92q-43 2 -76.5 -18.5t-33.5 -50.5q0 -43 63 -62l242 -71q147 -43 228 -113t81 -203q0 -155 -131 -231zM500 625l196 -54q59 39 60 99q0 53 -101 86l-166 53q-82 -33 -81 -92q0 -67 92 -92z" />
    <glyph glyph-name="dieresis" unicode="&#xa8;" horiz-adv-x="722" 
d="M157.5 1149q-65.5 0 -111.5 46t-46 111.5t46 110.5t111.5 45t112.5 -46t47 -109q0 -66 -47 -112t-112.5 -46zM563.5 1149q-65.5 0 -111.5 46t-46 111.5t46 110.5t111.5 45t112.5 -46t47 -109q0 -66 -47 -112t-112.5 -46z" />
    <glyph glyph-name="copyright" unicode="&#xa9;" horiz-adv-x="1509" 
d="M756 29q-295 0 -495 198.5t-200 493.5q0 289 200 486.5t495 197.5t493.5 -197.5t198.5 -486.5q0 -295 -198.5 -493.5t-493.5 -198.5zM755.5 184q227.5 0 381 154t153.5 383q0 227 -153.5 377.5t-381 150.5t-382 -150.5t-154.5 -377.5q0 -229 154.5 -383t382 -154z
M764 362q-156 0 -257 101.5t-101 253t101 252t253 100.5q135 0 223 -68.5t111 -158.5l-158 -39q-12 47 -60.5 81t-113.5 34q-86 0 -139.5 -57.5t-53.5 -143.5q0 -84 53.5 -143.5t139.5 -59.5q66 0 114 34t60 81l158 -41q-23 -88 -110 -157t-220 -69z" />
    <glyph glyph-name="guillemotleft" unicode="&#xab;" horiz-adv-x="1157" 
d="M614 1044l-204 -389l204 -389h-286l-215 389l215 389h286zM1044 1044l-204 -389l204 -389h-286l-215 389l215 389h286z" />
    <glyph glyph-name="logicalnot" unicode="&#xac;" horiz-adv-x="1208" 
d="M1096 952v-553h-277v297h-706v256h983z" />
    <glyph glyph-name="registered" unicode="&#xae;" horiz-adv-x="1509" 
d="M756 1405q293 0 492.5 -197.5t199.5 -490.5t-199.5 -490.5t-492.5 -197.5q-295 0 -495 197.5t-200 490.5t200 490.5t495 197.5zM755.5 182q227.5 0 380 153.5t152.5 381.5q0 229 -152.5 381.5t-380 152.5t-381 -152.5t-153.5 -381.5q0 -227 153.5 -381t381 -154z
M1063 827q0 -66 -37 -122t-102 -84l153 -242h-184l-133 221h-119v-221h-160v680h340q109 0 175.5 -71t66.5 -161zM641 911v-170h168q43 0 69.5 25t26.5 61q0 35 -25.5 59.5t-62.5 24.5h-176z" />
    <glyph glyph-name="macron" unicode="&#xaf;" horiz-adv-x="614" 
d="M0 1204v226h614v-226h-614z" />
    <glyph glyph-name="degree" unicode="&#xb0;" horiz-adv-x="839" 
d="M422 827q-154 0 -257.5 100.5t-103.5 248t103.5 248t257.5 100.5q152 0 254 -100.5t102 -247.5q0 -145 -103 -247t-253 -102zM422 1034q59 0 100 41t41 100.5t-41 100.5t-100 41q-66 0 -106 -40t-40 -101q0 -59 40 -100.5t106 -41.5z" />
    <glyph glyph-name="plusminus" unicode="&#xb1;" horiz-adv-x="1146" 
d="M702 1028h332v-256h-332v-287h-256v287h-333v256h333v289h256v-289zM113 117v256h921v-256h-921z" />
    <glyph glyph-name="uni00B2" unicode="&#xb2;" horiz-adv-x="731" 
d="M406 1130h284v-208h-655v149l319 297q76 74 76 119q0 27 -19.5 45t-54.5 18q-80 0 -106 -125l-219 64q12 113 101 193.5t220 80.5q150 0 238 -70.5t88 -197.5q0 -70 -28.5 -122t-94.5 -109z" />
    <glyph glyph-name="uni00B3" unicode="&#xb3;" horiz-adv-x="743" 
d="M526 1432q80 -25 128 -88.5t48 -155.5q0 -123 -91 -206t-228 -83q-160 0 -247 79t-105 193l211 62q10 -59 46 -94t89 -35q45 0 70.5 23.5t25.5 62.5t-26.5 65.5t-81.5 26.5q-37 0 -74 -6l-35 127l125 135h-320v203h613v-164z" />
    <glyph glyph-name="acute" unicode="&#xb4;" horiz-adv-x="509" 
d="M0 1204l154 291h356l-234 -291h-276z" />
    <glyph glyph-name="paragraph" unicode="&#xb6;" horiz-adv-x="1538" 
d="M1446 1434v-312h-170v-1552h-297v1552h-164v-1552h-307v952q-197 0 -327 130t-130 323q0 195 136.5 327t361.5 132h897z" />
    <glyph glyph-name="periodcentered" unicode="&#xb7;" horiz-adv-x="550" 
d="M276 403q-82 0 -138 55.5t-56 137.5q0 78 56.5 132t137.5 54q80 0 136.5 -54t56.5 -132q0 -82 -56.5 -137.5t-136.5 -55.5z" />
    <glyph glyph-name="cedilla" unicode="&#xb8;" horiz-adv-x="468" 
d="M221 -459q-129 0 -221 72l35 121q55 -39 133 -38t78 54q0 45 -57.5 61.5t-110.5 0.5l59 188h228l-35 -109q59 -10 99 -56t40 -103q0 -88 -67.5 -139.5t-180.5 -51.5z" />
    <glyph glyph-name="uni00B9" unicode="&#xb9;" horiz-adv-x="587" 
d="M276 1741h209v-819h-243v548l-183 -84l-59 209z" />
    <glyph glyph-name="guillemotright" unicode="&#xbb;" horiz-adv-x="1157" 
d="M399 1044l215 -389l-215 -389h-286l204 389l-204 389h286zM829 1044l215 -389l-215 -389h-286l205 389l-205 389h286z" />
    <glyph glyph-name="onequarter" unicode="&#xbc;" horiz-adv-x="1679" 
d="M242 614v549l-183 -84l-59 209l276 146h209v-820h-243zM1104 1434h215l-885 -1434h-215zM1659 346v-205h-90v-141h-230v141h-378v183l262 495h252l-244 -473h108v113h230v-113h90z" />
    <glyph glyph-name="onehalf" unicode="&#xbd;" horiz-adv-x="1681" 
d="M242 614v549l-183 -84l-59 209l276 146h209v-820h-243zM1104 1434h215l-885 -1434h-215zM1356 209h284v-209h-655v150l320 296q76 74 75 119q0 27 -19.5 45.5t-53.5 18.5q-80 0 -107 -125l-219 63q12 113 101 194t221 81q150 0 237.5 -71t87.5 -198q0 -70 -28.5 -122
t-94.5 -109z" />
    <glyph glyph-name="threequarters" unicode="&#xbe;" horiz-adv-x="1835" 
d="M702 881q0 -123 -91 -206t-228 -83q-160 0 -247 79t-105 193l211 62q10 -59 46 -94t89 -35q45 0 70.5 23.5t25.5 62.5t-26.5 65.5t-81.5 26.5q-37 0 -74 -6l-35 127l125 135h-320v203h613v-164l-148 -146q80 -25 128 -88t48 -155zM1260 1434h215l-885 -1434h-215z
M1815 346v-205h-91v-141h-229v141h-379v183l262 495h252l-244 -473h109v113h229v-113h91z" />
    <glyph glyph-name="questiondown" unicode="&#xbf;" horiz-adv-x="1136" 
d="M578 1061q82 0 138 -55.5t56 -137.5q0 -78 -56.5 -132t-137.5 -54q-80 0 -136.5 54.5t-56.5 131.5q0 82 56.5 137.5t136.5 55.5zM737 543q0 -78 -34.5 -145.5t-84 -113.5t-98.5 -89t-84 -89.5t-35 -93.5q0 -59 45.5 -95t120.5 -36q84 0 142.5 62.5t81.5 165.5l294 -91
q-23 -182 -161 -309t-359 -127t-362.5 117t-141.5 297q0 86 37 160.5t89.5 125t104.5 93.5t90 86t38 82h317z" />
    <glyph glyph-name="Agrave" unicode="&#xc0;" 
d="M918 1593h-277l-233 291h356zM1157 0l-100 274h-606l-101 -274h-350l530 1434h447l530 -1434h-350zM559 571h389l-194 537z" />
    <glyph glyph-name="Aacute" unicode="&#xc1;" 
d="M1100 1884l-234 -291h-276l153 291h357zM1157 0l-100 274h-606l-101 -274h-350l530 1434h447l530 -1434h-350zM559 571h389l-194 537z" />
    <glyph glyph-name="Acircumflex" unicode="&#xc2;" 
d="M754 1720l-90 -143h-287l223 307h307l223 -307h-286zM1157 0l-100 274h-606l-101 -274h-350l530 1434h447l530 -1434h-350zM559 571h389l-194 537z" />
    <glyph glyph-name="Atilde" unicode="&#xc3;" 
d="M645 1653q-43 0 -43 -88h-207q0 319 213 319q66 0 151 -48t103 -48q43 0 43 88h207q0 -319 -213 -320q-66 0 -151 48.5t-103 48.5zM1157 0l-100 274h-606l-101 -274h-350l530 1434h447l530 -1434h-350zM559 571h389l-194 537z" />
    <glyph glyph-name="Adieresis" unicode="&#xc4;" 
d="M548.5 1538q-65.5 0 -111.5 46t-46 111.5t46 110.5t111.5 45t113 -46t47.5 -109q0 -66 -47.5 -112t-113 -46zM954.5 1538q-65.5 0 -111.5 46t-46 111.5t46 110.5t111.5 45t112.5 -46t47 -109q0 -66 -47 -112t-112.5 -46zM1157 0l-100 274h-606l-101 -274h-350l530 1434
h447l530 -1434h-350zM559 571h389l-194 537z" />
    <glyph glyph-name="Aring" unicode="&#xc5;" 
d="M753.5 1499q-114.5 0 -190.5 74t-76 184.5t76 184t190.5 73.5t190.5 -73.5t76 -184t-76 -184.5t-190.5 -74zM754 1843q-39 0 -63.5 -24.5t-24.5 -61.5q0 -39 24.5 -62.5t63.5 -23.5t63.5 23.5t24.5 62.5q0 37 -24.5 61.5t-63.5 24.5zM1157 0l-100 274h-606l-101 -274
h-350l530 1434h447l530 -1434h-350zM559 571h389l-194 537z" />
    <glyph glyph-name="AE" unicode="&#xc6;" horiz-adv-x="2050" 
d="M1968 1126h-659v-249h555v-297h-555v-273h657v-307h-983v279h-455l-161 -279h-367l838 1434h1130v-308zM702 582h281v483z" />
    <glyph glyph-name="Ccedilla" unicode="&#xc7;" horiz-adv-x="1583" 
d="M821 291q141 0 240.5 70.5t128.5 168.5l332 -84q-41 -164 -190.5 -299t-379.5 -167l-28 -89q59 -10 99 -56t40 -103q0 -88 -67.5 -139.5t-180.5 -51.5q-129 0 -221 72l35 121q55 -39 133 -38t78 54q0 45 -57.5 61.5t-110.5 0.5l53 165q-289 35 -473 241t-184 499
q0 317 215 531t536 214q285 0 470.5 -145.5t232.5 -335.5l-332 -82q-29 98 -129 171t-240 73q-182 0 -293.5 -123t-111.5 -301q0 -176 112.5 -302t292.5 -126z" />
    <glyph glyph-name="Egrave" unicode="&#xc8;" horiz-adv-x="1284" 
d="M821 1593h-276l-234 291h357zM1202 1126h-747v-249h643v-297h-643v-273h745v-307h-1077v1434h1079v-308z" />
    <glyph glyph-name="Eacute" unicode="&#xc9;" horiz-adv-x="1284" 
d="M1004 1884l-234 -291h-276l153 291h357zM1202 1126h-747v-249h643v-297h-643v-273h745v-307h-1077v1434h1079v-308z" />
    <glyph glyph-name="Ecircumflex" unicode="&#xca;" horiz-adv-x="1284" 
d="M657 1720l-90 -143h-286l223 307h307l223 -307h-286zM1202 1126h-747v-249h643v-297h-643v-273h745v-307h-1077v1434h1079v-308z" />
    <glyph glyph-name="Edieresis" unicode="&#xcb;" horiz-adv-x="1284" 
d="M452.5 1538q-65.5 0 -111.5 46t-46 111.5t46 110.5t111.5 45t112.5 -46t47 -109q0 -66 -47 -112t-112.5 -46zM858.5 1538q-65.5 0 -112 46t-46.5 111.5t46.5 110.5t112 45t112.5 -46t47 -109q0 -66 -47 -112t-112.5 -46zM1202 1126h-747v-249h643v-297h-643v-273h745
v-307h-1077v1434h1079v-308z" />
    <glyph glyph-name="Igrave" unicode="&#xcc;" horiz-adv-x="589" 
d="M459 1593h-277l-233 291h356zM123 0v1434h344v-1434h-344z" />
    <glyph glyph-name="Iacute" unicode="&#xcd;" horiz-adv-x="589" 
d="M131 1593l154 291h356l-233 -291h-277zM123 0v1434h344v-1434h-344z" />
    <glyph glyph-name="Icircumflex" unicode="&#xce;" horiz-adv-x="589" 
d="M295 1720l-90 -143h-287l223 307h308l223 -307h-287zM123 0v1434h344v-1434h-344z" />
    <glyph glyph-name="Idieresis" unicode="&#xcf;" horiz-adv-x="589" 
d="M90.5 1538q-65.5 0 -112 46t-46.5 111.5t46.5 110.5t112 45t112.5 -46t47 -109q0 -66 -47 -112t-112.5 -46zM495.5 1538q-65.5 0 -111.5 46t-46 111.5t46 110.5t111.5 45t112.5 -46t47 -109q0 -66 -47 -112t-112.5 -46zM123 0v1434h344v-1434h-344z" />
    <glyph glyph-name="Eth" unicode="&#xd0;" horiz-adv-x="1591" 
d="M846 1434q303 0 490.5 -199t187.5 -518q0 -315 -186.5 -516t-491.5 -201h-662v563h-143v287h143v584h662zM838 305q147 0 244.5 116t97.5 302q0 184 -97.5 294.5t-244.5 110.5h-318v-278h299v-287h-299v-258h318z" />
    <glyph glyph-name="Ntilde" unicode="&#xd1;" 
d="M645 1653q-43 0 -43 -88h-207q0 319 213 319q66 0 151 -48t103 -48q43 0 43 88h207q0 -319 -213 -320q-66 0 -151 48.5t-103 48.5zM1044 1434h340v-1434h-276l-645 821v-821h-340v1434h276l645 -822v822z" />
    <glyph glyph-name="Ograve" unicode="&#xd2;" horiz-adv-x="1654" 
d="M991 1593h-276l-234 291h357zM827.5 -29q-327.5 0 -543.5 213t-216 532.5t216 532.5t543.5 213t543.5 -213t216 -532.5t-216 -532.5t-543.5 -213zM827.5 285q186.5 0 301 122.5t114.5 309t-114.5 309.5t-301 123t-301 -123t-114.5 -309.5t114.5 -309t301 -122.5z" />
    <glyph glyph-name="Oacute" unicode="&#xd3;" horiz-adv-x="1654" 
d="M664 1593l153 291h357l-234 -291h-276zM827.5 -29q-327.5 0 -543.5 213t-216 532.5t216 532.5t543.5 213t543.5 -213t216 -532.5t-216 -532.5t-543.5 -213zM827.5 285q186.5 0 301 122.5t114.5 309t-114.5 309.5t-301 123t-301 -123t-114.5 -309.5t114.5 -309t301 -122.5
z" />
    <glyph glyph-name="Ocircumflex" unicode="&#xd4;" horiz-adv-x="1654" 
d="M827 1720l-90 -143h-286l223 307h307l223 -307h-286zM827.5 1462q327.5 0 543.5 -213t216 -532.5t-216 -532.5t-543.5 -213t-543.5 213t-216 532.5t216 532.5t543.5 213zM827.5 285q186.5 0 301 122.5t114.5 309t-114.5 309.5t-301 123t-301 -123t-114.5 -309.5
t114.5 -309t301 -122.5z" />
    <glyph glyph-name="Otilde" unicode="&#xd5;" horiz-adv-x="1654" 
d="M973 1556q-66 0 -151 48.5t-103 48.5q-43 0 -43 -88h-207q0 319 213 319q66 0 151 -48t103 -48q43 0 43 88h207q0 -320 -213 -320zM827.5 -29q-327.5 0 -543.5 213t-216 532.5t216 532.5t543.5 213t543.5 -213t216 -532.5t-216 -532.5t-543.5 -213zM827.5 285
q186.5 0 301 122.5t114.5 309t-114.5 309.5t-301 123t-301 -123t-114.5 -309.5t114.5 -309t301 -122.5z" />
    <glyph glyph-name="Odieresis" unicode="&#xd6;" horiz-adv-x="1654" 
d="M622.5 1538q-65.5 0 -111.5 46t-46 111.5t46 110.5t111.5 45t112.5 -46t47 -109q0 -66 -47 -112t-112.5 -46zM1028.5 1538q-65.5 0 -112 46t-46.5 111.5t46.5 110.5t112 45t112.5 -46t47 -109q0 -66 -47 -112t-112.5 -46zM827.5 -29q-327.5 0 -543.5 213t-216 532.5
t216 532.5t543.5 213t543.5 -213t216 -532.5t-216 -532.5t-543.5 -213zM827.5 285q186.5 0 301 122.5t114.5 309t-114.5 309.5t-301 123t-301 -123t-114.5 -309.5t114.5 -309t301 -122.5z" />
    <glyph glyph-name="multiply" unicode="&#xd7;" horiz-adv-x="1087" 
d="M975 969l-250 -252l248 -248l-180 -182l-248 250l-250 -250l-180 182l247 248l-249 252l182 180l250 -250l248 250z" />
    <glyph glyph-name="Oslash" unicode="&#xd8;" horiz-adv-x="1654" 
d="M1331 1284q256 -217 256 -567q0 -319 -216 -532.5t-544 -213.5q-199 0 -358 82l-59 -84h-215l127 181q-121 102 -187.5 249.5t-66.5 317.5q0 319 216 532t543 213q195 0 359 -82l57 84h215zM412 717q0 -172 100 -295l487 694q-82 33 -172 33q-186 0 -300.5 -123
t-114.5 -309zM827 285q186 0 301 122.5t115 309.5q0 176 -102 295l-486 -695q82 -32 172 -32z" />
    <glyph glyph-name="Ugrave" unicode="&#xd9;" horiz-adv-x="1499" 
d="M913 1593h-276l-234 291h357zM1042 1434h344v-838q0 -283 -167.5 -454t-468.5 -171q-303 0 -470 171t-167 454v838h344v-832q0 -143 74.5 -231t218 -88t218 88t74.5 231v832z" />
    <glyph glyph-name="Uacute" unicode="&#xda;" horiz-adv-x="1499" 
d="M1096 1884l-234 -291h-276l153 291h357zM1042 1434h344v-838q0 -283 -167.5 -454t-468.5 -171q-303 0 -470 171t-167 454v838h344v-832q0 -143 74.5 -231t218 -88t218 88t74.5 231v832z" />
    <glyph glyph-name="Ucircumflex" unicode="&#xdb;" horiz-adv-x="1499" 
d="M750 1720l-91 -143h-286l223 307h307l223 -307h-286zM1042 1434h344v-838q0 -283 -167.5 -454t-468.5 -171q-303 0 -470 171t-167 454v838h344v-832q0 -143 74.5 -231t218 -88t218 88t74.5 231v832z" />
    <glyph glyph-name="Udieresis" unicode="&#xdc;" horiz-adv-x="1499" 
d="M544.5 1538q-65.5 0 -111.5 46t-46 111.5t46 110.5t111.5 45t113 -46t47.5 -109q0 -66 -47.5 -112t-113 -46zM950.5 1538q-65.5 0 -111.5 46t-46 111.5t46 110.5t111.5 45t112.5 -46t47 -109q0 -66 -47 -112t-112.5 -46zM1042 1434h344v-838q0 -283 -167.5 -454
t-468.5 -171q-303 0 -470 171t-167 454v838h344v-832q0 -143 74.5 -231t218 -88t218 88t74.5 231v832z" />
    <glyph glyph-name="Yacute" unicode="&#xdd;" horiz-adv-x="1415" 
d="M1055 1884l-234 -291h-276l153 291h357zM1034 1434h381l-534 -918v-516h-344v516l-537 918h383l326 -586z" />
    <glyph glyph-name="Thorn" unicode="&#xde;" horiz-adv-x="1357" 
d="M813 1251q229 0 371.5 -157.5t142.5 -358.5q0 -203 -144.5 -359.5t-383.5 -156.5h-340v-219h-336v1434h336v-183h354zM791 522q90 0 148 63.5t58 147.5t-55 147.5t-137 63.5h-346v-422h332z" />
    <glyph glyph-name="germandbls" unicode="&#xdf;" horiz-adv-x="1265" 
d="M983 807q221 -117 221 -361q0 -211 -138 -328.5t-384 -117.5h-102v287h90q98 0 152.5 45t54.5 129q0 174 -218 174h-69v260h31q82 0 133 47t51 131q0 72 -46 116t-124 44q-90 0 -142.5 -67.5t-52.5 -178.5v-987h-327v981q0 240 141 389.5t375 149.5q217 0 359 -120
t142 -308q0 -187 -147 -285z" />
    <glyph glyph-name="agrave" unicode="&#xe0;" horiz-adv-x="1320" 
d="M807 1204h-277l-233 291h356zM569 -29q-213 0 -360.5 158t-147.5 393.5t147.5 393t360.5 157.5q186 0 301 -125v96h328v-1044h-328v96q-119 -125 -301 -125zM629 262q109 0 179.5 73t70.5 189q0 115 -71 186.5t-179 71.5q-106 0 -175 -71.5t-69 -186.5q0 -117 69 -189.5
t175 -72.5z" />
    <glyph glyph-name="aacute" unicode="&#xe1;" horiz-adv-x="1320" 
d="M479 1204l154 291h356l-233 -291h-277zM569 -29q-213 0 -360.5 158t-147.5 393.5t147.5 393t360.5 157.5q186 0 301 -125v96h328v-1044h-328v96q-119 -125 -301 -125zM629 262q109 0 179.5 73t70.5 189q0 115 -71 186.5t-179 71.5q-106 0 -175 -71.5t-69 -186.5
q0 -117 69 -189.5t175 -72.5z" />
    <glyph glyph-name="acircumflex" unicode="&#xe2;" horiz-adv-x="1320" 
d="M643 1331l-90 -143h-287l223 307h308l223 -307h-287zM870 1044h328v-1044h-328v96q-119 -125 -301 -125q-213 0 -360.5 158t-147.5 393.5t147.5 393t360.5 157.5q186 0 301 -125v96zM629 262q109 0 179.5 73t70.5 189q0 115 -71 186.5t-179 71.5q-106 0 -175 -71.5
t-69 -186.5q0 -117 69 -189.5t175 -72.5z" />
    <glyph glyph-name="atilde" unicode="&#xe3;" horiz-adv-x="1320" 
d="M788 1167q-66 0 -150.5 48.5t-102.5 48.5q-43 0 -43 -88h-207q0 319 213 319q66 0 150.5 -48t103.5 -48q43 0 43 88h206q0 -320 -213 -320zM569 -29q-213 0 -360.5 158t-147.5 393.5t147.5 393t360.5 157.5q186 0 301 -125v96h328v-1044h-328v96q-119 -125 -301 -125z
M629 262q109 0 179.5 73t70.5 189q0 115 -71 186.5t-179 71.5q-106 0 -175 -71.5t-69 -186.5q0 -117 69 -189.5t175 -72.5z" />
    <glyph glyph-name="adieresis" unicode="&#xe4;" horiz-adv-x="1320" 
d="M438.5 1149q-65.5 0 -111.5 46t-46 111.5t46 110.5t111.5 45t112.5 -46t47 -109q0 -66 -47 -112t-112.5 -46zM843.5 1149q-65.5 0 -111.5 46t-46 111.5t46 110.5t111.5 45t113 -46t47.5 -109q0 -66 -47.5 -112t-113 -46zM569 -29q-213 0 -360.5 158t-147.5 393.5
t147.5 393t360.5 157.5q186 0 301 -125v96h328v-1044h-328v96q-119 -125 -301 -125zM629 262q109 0 179.5 73t70.5 189q0 115 -71 186.5t-179 71.5q-106 0 -175 -71.5t-69 -186.5q0 -117 69 -189.5t175 -72.5z" />
    <glyph glyph-name="aring" unicode="&#xe5;" horiz-adv-x="1320" 
d="M643 1110q-115 0 -190.5 73.5t-75.5 184.5t75.5 184.5t190.5 73.5t190.5 -73.5t75.5 -184.5t-75.5 -184.5t-190.5 -73.5zM643 1282q39 0 63.5 23.5t24.5 62.5q0 37 -24.5 61.5t-63.5 24.5t-63.5 -24.5t-24.5 -61.5q0 -39 24.5 -62.5t63.5 -23.5zM569 -29
q-213 0 -360.5 158t-147.5 393.5t147.5 393t360.5 157.5q186 0 301 -125v96h328v-1044h-328v96q-119 -125 -301 -125zM629 262q109 0 179.5 73t70.5 189q0 115 -71 186.5t-179 71.5q-106 0 -175 -71.5t-69 -186.5q0 -117 69 -189.5t175 -72.5z" />
    <glyph glyph-name="ae" unicode="&#xe6;" horiz-adv-x="2041" 
d="M1980 532q0 -61 -10 -126h-768q20 -78 86 -123t166 -45q127 0 182 86l293 -88q-61 -119 -178 -192t-270 -73q-207 0 -324 131v-102h-287v96q-119 -125 -301 -125q-213 0 -360.5 158t-147.5 393.5t147.5 393t360.5 157.5q186 0 301 -125v96h287v-110q119 139 316 139
q223 0 365 -150.5t142 -390.5zM1196 618h469q-10 80 -69.5 131.5t-155.5 51.5q-98 0 -164 -53.5t-80 -129.5zM629 262q109 0 179.5 73t70.5 189q0 115 -71 186.5t-179 71.5q-106 0 -175 -71.5t-69 -186.5q0 -117 69 -189.5t175 -72.5z" />
    <glyph glyph-name="ccedilla" unicode="&#xe7;" horiz-adv-x="1189" 
d="M618 260q84 0 143.5 44t74.5 104l303 -86q-27 -113 -130.5 -209.5t-260.5 -128.5l-29 -93q59 -10 99 -56t40 -103q0 -88 -67.5 -139.5t-180.5 -51.5q-129 0 -221 72l35 121q55 -39 133 -38t78 54q0 45 -57.5 61.5t-110.5 0.5l53 168q-203 33 -331 183t-128 359
q0 236 158 393.5t397 157.5q209 0 349.5 -108.5t173.5 -245.5l-303 -86q-14 61 -74 106t-144 45q-106 0 -171.5 -75.5t-65.5 -184t65.5 -186.5t171.5 -78z" />
    <glyph glyph-name="egrave" unicode="&#xe8;" horiz-adv-x="1222" 
d="M780 1204h-276l-234 291h357zM635 -29q-256 0 -415 152.5t-159 396.5q0 240 153 396.5t400 156.5q252 0 399.5 -153.5t147.5 -387.5q0 -61 -8 -108h-772q37 -180 260 -180q150 0 209 106l295 -86q-49 -113 -184.5 -203t-325.5 -90zM381 621h461q-8 74 -70.5 126t-159 52
t-158 -53t-73.5 -125z" />
    <glyph glyph-name="eacute" unicode="&#xe9;" horiz-adv-x="1222" 
d="M453 1204l153 291h357l-234 -291h-276zM635 -29q-256 0 -415 152.5t-159 396.5q0 240 153 396.5t400 156.5q252 0 399.5 -153.5t147.5 -387.5q0 -61 -8 -108h-772q37 -180 260 -180q150 0 209 106l295 -86q-49 -113 -184.5 -203t-325.5 -90zM381 621h461q-8 74 -70.5 126
t-159 52t-158 -53t-73.5 -125z" />
    <glyph glyph-name="ecircumflex" unicode="&#xea;" horiz-adv-x="1222" 
d="M616 1331l-90 -143h-286l223 307h307l223 -307h-286zM1161 532q0 -61 -8 -108h-772q37 -180 260 -180q150 0 209 106l295 -86q-49 -113 -184.5 -203t-325.5 -90q-256 0 -415 152.5t-159 396.5q0 240 153 396.5t400 156.5q252 0 399.5 -154t147.5 -387zM381 621h461
q-8 74 -70.5 126t-159 52t-158 -53t-73.5 -125z" />
    <glyph glyph-name="edieresis" unicode="&#xeb;" horiz-adv-x="1222" 
d="M411.5 1149q-65.5 0 -111.5 46t-46 111.5t46 110.5t111.5 45t112.5 -46t47 -109q0 -66 -47 -112t-112.5 -46zM817.5 1149q-65.5 0 -112 46t-46.5 111.5t46.5 110.5t112 45t112.5 -46t47 -109q0 -66 -47 -112t-112.5 -46zM635 -29q-256 0 -415 152.5t-159 396.5
q0 240 153 396.5t400 156.5q252 0 399.5 -153.5t147.5 -387.5q0 -61 -8 -108h-772q37 -180 260 -180q150 0 209 106l295 -86q-49 -113 -184.5 -203t-325.5 -90zM381 621h461q-8 74 -70.5 126t-159 52t-158 -53t-73.5 -125z" />
    <glyph glyph-name="igrave" unicode="&#xec;" horiz-adv-x="573" 
d="M451 1204h-277l-233 291h356zM123 0v1044h328v-1044h-328z" />
    <glyph glyph-name="iacute" unicode="&#xed;" horiz-adv-x="573" 
d="M123 1204l153 291h357l-234 -291h-276zM123 0v1044h328v-1044h-328z" />
    <glyph glyph-name="icircumflex" unicode="&#xee;" horiz-adv-x="573" 
d="M287 1331l-90 -143h-287l223 307h307l224 -307h-287zM123 0v1044h328v-1044h-328z" />
    <glyph glyph-name="idieresis" unicode="&#xef;" horiz-adv-x="573" 
d="M94.5 1149q-65.5 0 -111.5 46t-46 111.5t46 110.5t111.5 45t112.5 -46t47 -109q0 -66 -47 -112t-112.5 -46zM477.5 1149q-65.5 0 -112 46t-46.5 111.5t46.5 110.5t112 45t112.5 -46t47 -109q0 -66 -47 -112t-112.5 -46zM123 0v1044h328v-1044h-328z" />
    <glyph glyph-name="eth" unicode="&#xf0;" horiz-adv-x="1234" 
d="M891 1184q283 -311 283 -662q0 -246 -156 -398.5t-397 -152.5q-240 0 -400 147.5t-160 368.5q0 217 153 354.5t380 137.5q70 0 121 -16q-59 78 -123 145l-352 -88l-41 154l260 65q-111 96 -252 195h414q20 -16 139 -119l297 74l41 -154zM620.5 270q100.5 0 161 60.5
t60.5 154.5q0 92 -60.5 152.5t-161 60.5t-161 -60t-60.5 -153q0 -94 60.5 -154.5t161 -60.5z" />
    <glyph glyph-name="ntilde" unicode="&#xf1;" horiz-adv-x="1280" 
d="M543 1264q-43 0 -43 -88h-207q0 319 213 319q66 0 150.5 -48t103.5 -48q43 0 43 88h207q0 -319 -213 -320q-66 0 -151 48.5t-103 48.5zM760 1073q203 0 305 -125t102 -340v-608h-327v543q0 227 -187 227q-94 0 -148 -69.5t-54 -190.5v-510h-328v1044h328v-108
q119 137 309 137z" />
    <glyph glyph-name="ograve" unicode="&#xf2;" horiz-adv-x="1245" 
d="M786 1204h-276l-234 291h357zM622.5 -29q-243.5 0 -402.5 158t-159 393.5t159 393t402.5 157.5t402.5 -157.5t159 -393t-159 -393.5t-402.5 -158zM622.5 266q110.5 0 177 72t66.5 184.5t-66.5 184t-177 71.5t-177 -71.5t-66.5 -184t66.5 -184.5t177 -72z" />
    <glyph glyph-name="oacute" unicode="&#xf3;" horiz-adv-x="1245" 
d="M459 1204l153 291h357l-234 -291h-276zM622.5 -29q-243.5 0 -402.5 158t-159 393.5t159 393t402.5 157.5t402.5 -157.5t159 -393t-159 -393.5t-402.5 -158zM622.5 266q110.5 0 177 72t66.5 184.5t-66.5 184t-177 71.5t-177 -71.5t-66.5 -184t66.5 -184.5t177 -72z" />
    <glyph glyph-name="ocircumflex" unicode="&#xf4;" horiz-adv-x="1245" 
d="M623 1331l-91 -143h-286l223 307h307l223 -307h-286zM622.5 1073q243.5 0 402.5 -157.5t159 -393t-159 -393.5t-402.5 -158t-402.5 158t-159 393.5t159 393t402.5 157.5zM622.5 266q110.5 0 177 72t66.5 184.5t-66.5 184t-177 71.5t-177 -71.5t-66.5 -184t66.5 -184.5
t177 -72z" />
    <glyph glyph-name="otilde" unicode="&#xf5;" horiz-adv-x="1245" 
d="M768 1167q-66 0 -151 48.5t-103 48.5q-43 0 -43 -88h-207q0 319 213 319q66 0 151 -48t103 -48q43 0 43 88h207q0 -320 -213 -320zM622.5 -29q-243.5 0 -402.5 158t-159 393.5t159 393t402.5 157.5t402.5 -157.5t159 -393t-159 -393.5t-402.5 -158zM622.5 266
q110.5 0 177 72t66.5 184.5t-66.5 184t-177 71.5t-177 -71.5t-66.5 -184t66.5 -184.5t177 -72z" />
    <glyph glyph-name="odieresis" unicode="&#xf6;" horiz-adv-x="1245" 
d="M417.5 1149q-65.5 0 -111.5 46t-46 111.5t46 110.5t111.5 45t113 -46t47.5 -109q0 -66 -47.5 -112t-113 -46zM823.5 1149q-65.5 0 -111.5 46t-46 111.5t46 110.5t111.5 45t112.5 -46t47 -109q0 -66 -47 -112t-112.5 -46zM622.5 -29q-243.5 0 -402.5 158t-159 393.5
t159 393t402.5 157.5t402.5 -157.5t159 -393t-159 -393.5t-402.5 -158zM622.5 266q110.5 0 177 72t66.5 184.5t-66.5 184t-177 71.5t-177 -71.5t-66.5 -184t66.5 -184.5t177 -72z" />
    <glyph glyph-name="divide" unicode="&#xf7;" horiz-adv-x="1187" 
d="M593.5 948q-63.5 0 -108.5 45t-45 109q0 59 45 103t108.5 44t109 -44t45.5 -103q0 -63 -45.5 -108.5t-109 -45.5zM113 590v256h962v-256h-962zM593.5 186q-63.5 0 -108.5 45t-45 109q0 59 45 103t108.5 44t109 -44t45.5 -103q0 -63 -45.5 -108.5t-109 -45.5z" />
    <glyph glyph-name="oslash" unicode="&#xf8;" horiz-adv-x="1245" 
d="M1004 936q180 -160 180 -414q0 -236 -159 -393.5t-402 -157.5q-137 0 -254 56l-41 -58h-185l99 140q-180 160 -181 413q0 236 159 393.5t403 157.5q137 0 254 -55l41 57h184zM379 522q0 -90 43 -155l280 399q-37 12 -79 12q-111 0 -177.5 -71.5t-66.5 -184.5zM623 266
q111 0 177 72t66 184q0 92 -43 156l-280 -399q37 -13 80 -13z" />
    <glyph glyph-name="ugrave" unicode="&#xf9;" horiz-adv-x="1280" 
d="M803 1204h-277l-233 291h356zM829 1044h328v-1044h-328v109q-119 -137 -309 -138q-203 0 -305 125t-102 340v608h327v-542q0 -227 187 -228q94 0 148 70t54 191v509z" />
    <glyph glyph-name="uacute" unicode="&#xfa;" horiz-adv-x="1280" 
d="M985 1495l-233 -291h-277l154 291h356zM829 1044h328v-1044h-328v109q-119 -137 -309 -138q-203 0 -305 125t-102 340v608h327v-542q0 -227 187 -228q94 0 148 70t54 191v509z" />
    <glyph glyph-name="ucircumflex" unicode="&#xfb;" horiz-adv-x="1280" 
d="M639 1331l-90 -143h-287l223 307h308l223 -307h-287zM829 1044h328v-1044h-328v109q-119 -137 -309 -138q-203 0 -305 125t-102 340v608h327v-542q0 -227 187 -228q94 0 148 70t54 191v509z" />
    <glyph glyph-name="udieresis" unicode="&#xfc;" horiz-adv-x="1280" 
d="M434.5 1149q-65.5 0 -112 46t-46.5 111.5t46.5 110.5t112 45t112.5 -46t47 -109q0 -66 -47 -112t-112.5 -46zM839.5 1149q-65.5 0 -111.5 46t-46 111.5t46 110.5t111.5 45t112.5 -46t47 -109q0 -66 -47 -112t-112.5 -46zM829 1044h328v-1044h-328v109
q-119 -137 -309 -138q-203 0 -305 125t-102 340v608h327v-542q0 -227 187 -228q94 0 148 70t54 191v509z" />
    <glyph glyph-name="yacute" unicode="&#xfd;" horiz-adv-x="1236" 
d="M973 1495l-234 -291h-276l153 291h357zM887 1044h350l-621 -1474h-333l186 455l14 2l-14 -2l-469 1019h358l273 -636z" />
    <glyph glyph-name="thorn" unicode="&#xfe;" horiz-adv-x="1320" 
d="M752 1073q213 0 360.5 -157.5t147.5 -393t-147.5 -393.5t-360.5 -158q-182 0 -301 125v-526h-328v1925h328v-547q115 125 301 125zM692 262q106 0 175 73t69 189q0 115 -68.5 186.5t-175.5 71.5q-109 0 -179.5 -71.5t-70.5 -186.5q0 -117 70.5 -189.5t179.5 -72.5z" />
    <glyph glyph-name="ydieresis" unicode="&#xff;" horiz-adv-x="1236" 
d="M421.5 1149q-65.5 0 -111.5 46t-46 111.5t46 110.5t111.5 45t113 -46t47.5 -109q0 -66 -47.5 -112t-113 -46zM827.5 1149q-65.5 0 -111.5 46t-46 111.5t46 110.5t111.5 45t112.5 -46t47 -109q0 -66 -47 -112t-112.5 -46zM887 1044h350l-621 -1474h-333l186 455l14 2
l-14 -2l-469 1019h358l273 -636z" />
    <glyph glyph-name="Amacron" unicode="&#x100;" 
d="M1061 1819v-226h-615v226h615zM1157 0l-100 274h-606l-101 -274h-350l530 1434h447l530 -1434h-350zM559 571h389l-194 537z" />
    <glyph glyph-name="amacron" unicode="&#x101;" horiz-adv-x="1320" 
d="M336 1204v226h614v-226h-614zM569 -29q-213 0 -360.5 158t-147.5 393.5t147.5 393t360.5 157.5q186 0 301 -125v96h328v-1044h-328v96q-119 -125 -301 -125zM629 262q109 0 179.5 73t70.5 189q0 115 -71 186.5t-179 71.5q-106 0 -175 -71.5t-69 -186.5q0 -117 69 -189.5
t175 -72.5z" />
    <glyph glyph-name="Abreve" unicode="&#x102;" 
d="M754 1550q-176 0 -267.5 89.5t-91.5 226.5h248q0 -121 110.5 -121t110.5 121h248q0 -137 -91 -226.5t-267 -89.5zM1157 0l-100 274h-606l-101 -274h-350l530 1434h447l530 -1434h-350zM559 571h389l-194 537z" />
    <glyph glyph-name="abreve" unicode="&#x103;" horiz-adv-x="1320" 
d="M643 1161q-176 0 -267 89t-91 227h247q0 -121 111 -121t111 121h247q0 -137 -91 -226.5t-267 -89.5zM569 -29q-213 0 -360.5 158t-147.5 393.5t147.5 393t360.5 157.5q186 0 301 -125v96h328v-1044h-328v96q-119 -125 -301 -125zM629 262q109 0 179.5 73t70.5 189
q0 115 -71 186.5t-179 71.5q-106 0 -175 -71.5t-69 -186.5q0 -117 69 -189.5t175 -72.5z" />
    <glyph glyph-name="Aogonek" unicode="&#x104;" 
d="M1540 -190l53 -168q-31 -41 -95 -71t-142 -30q-98 0 -164 57.5t-66 149.5q0 133 150 252h-119l-100 274h-606l-101 -274h-350l530 1434h447l530 -1434q-61 -45 -102 -101.5t-41 -91.5q0 -57 57 -57q72 1 119 60zM559 571h389l-194 537z" />
    <glyph glyph-name="aogonek" unicode="&#x105;" horiz-adv-x="1320" 
d="M1231 -190l53 -168q-31 -41 -95.5 -71t-141.5 -30q-98 0 -164 57.5t-66 149.5q0 133 150 252h-97v96q-119 -125 -301 -125q-213 0 -360.5 158t-147.5 393.5t147.5 393t360.5 157.5q186 0 301 -125v96h328v-1044q-61 -45 -102 -101.5t-41 -91.5q0 -57 57 -57q72 1 119 60z
M629 262q109 0 179.5 73t70.5 189q0 115 -71 186.5t-179 71.5q-106 0 -175 -71.5t-69 -186.5q0 -117 69 -189.5t175 -72.5z" />
    <glyph glyph-name="Cacute" unicode="&#x106;" horiz-adv-x="1583" 
d="M657 1593l154 291h356l-233 -291h-277zM825 -29q-326 0 -541.5 213t-215.5 533q0 317 215 531t536 214q285 0 470.5 -145.5t232.5 -335.5l-332 -82q-29 98 -129 171t-240 73q-182 0 -293.5 -123t-111.5 -301q0 -176 112.5 -302t292.5 -126q141 0 240.5 70.5t128.5 168.5
l332 -84q-47 -188 -231.5 -331.5t-465.5 -143.5z" />
    <glyph glyph-name="cacute" unicode="&#x107;" horiz-adv-x="1189" 
d="M453 1204l153 291h357l-234 -291h-276zM621 -29q-242 0 -401 158t-159 393.5t158 393t397 157.5q209 0 349.5 -108.5t173.5 -245.5l-303 -86q-14 61 -74 106t-144 45q-106 0 -171.5 -75.5t-65.5 -184t65.5 -186.5t171.5 -78q84 0 143.5 44t74.5 104l303 -86
q-33 -137 -172 -244t-346 -107z" />
    <glyph glyph-name="Cdotaccent" unicode="&#x10a;" horiz-adv-x="1583" 
d="M821.5 1550q-73.5 0 -126 51.5t-52.5 124.5q0 72 52.5 123.5t126 51.5t125.5 -51.5t52 -123.5q0 -74 -52 -125t-125.5 -51zM825 -29q-326 0 -541.5 213t-215.5 533q0 317 215 531t536 214q285 0 470.5 -145.5t232.5 -335.5l-332 -82q-29 98 -129 171t-240 73
q-182 0 -293.5 -123t-111.5 -301q0 -176 112.5 -302t292.5 -126q141 0 240.5 70.5t128.5 168.5l332 -84q-47 -188 -231.5 -331.5t-465.5 -143.5z" />
    <glyph glyph-name="cdotaccent" unicode="&#x10b;" horiz-adv-x="1189" 
d="M616.5 1161q-73.5 0 -126 51.5t-52.5 124.5q0 72 52.5 123t126 51t126 -51t52.5 -123q0 -74 -52.5 -125t-126 -51zM621 -29q-242 0 -401 158t-159 393.5t158 393t397 157.5q209 0 349.5 -108.5t173.5 -245.5l-303 -86q-14 61 -74 106t-144 45q-106 0 -171.5 -75.5
t-65.5 -184t65.5 -186.5t171.5 -78q84 0 143.5 44t74.5 104l303 -86q-33 -137 -172 -244t-346 -107z" />
    <glyph glyph-name="Ccaron" unicode="&#x10c;" horiz-adv-x="1583" 
d="M668 1577l-224 307h287l90 -143l90 143h287l-223 -307h-307zM821 291q141 0 240.5 70.5t128.5 168.5l332 -84q-47 -188 -231.5 -331.5t-465.5 -143.5q-326 0 -541.5 213t-215.5 533q0 317 215 531t536 214q285 0 470.5 -145.5t232.5 -335.5l-332 -82q-29 98 -129 171
t-240 73q-182 0 -293.5 -123t-111.5 -301q0 -176 112.5 -302t292.5 -126z" />
    <glyph glyph-name="ccaron" unicode="&#x10d;" horiz-adv-x="1189" 
d="M463 1188l-223 307h286l90 -143l91 143h286l-223 -307h-307zM618 260q84 0 143.5 44t74.5 104l303 -86q-33 -137 -172.5 -244t-345.5 -107q-242 0 -401 158t-159 393.5t158 393t397 157.5q209 0 349.5 -108.5t173.5 -245.5l-303 -86q-14 61 -74 106t-144 45
q-106 0 -171.5 -75.5t-65.5 -184t65.5 -186.5t171.5 -78z" />
    <glyph glyph-name="Dcaron" unicode="&#x10e;" horiz-adv-x="1529" 
d="M563 1577l-223 307h287l90 -143l90 143h287l-224 -307h-307zM784 1434q303 0 490.5 -199t187.5 -518q0 -315 -186 -516t-492 -201h-661v1434h661zM776 305q147 0 244.5 116t97.5 302q0 184 -97 294.5t-245 110.5h-317v-823h317z" />
    <glyph glyph-name="dcaron" unicode="&#x10f;" horiz-adv-x="1601" 
d="M870 1495h328v-1495h-328v96q-119 -125 -301 -125q-213 0 -360.5 158t-147.5 393.5t147.5 393t360.5 157.5q186 0 301 -125v547zM1329 1495h293l-68 -434h-251zM629 262q109 0 179.5 73t70.5 189q0 115 -71 186.5t-179 71.5q-106 0 -175 -71.5t-69 -186.5
q0 -117 69 -189.5t175 -72.5z" />
    <glyph glyph-name="Dcroat" unicode="&#x110;" horiz-adv-x="1591" 
d="M846 1434q303 0 490.5 -199t187.5 -518q0 -315 -186.5 -516t-491.5 -201h-662v563h-143v287h143v584h662zM838 305q147 0 244.5 116t97.5 302q0 184 -97.5 294.5t-244.5 110.5h-318v-278h299v-287h-299v-258h318z" />
    <glyph glyph-name="dcroat" unicode="&#x111;" horiz-adv-x="1329" 
d="M1329 1341v-184h-131v-1157h-328v96q-119 -125 -301 -125q-213 0 -360.5 158t-147.5 393.5t147.5 393t360.5 157.5q186 0 301 -125v209h-299v184h299v154h328v-154h131zM629 262q109 0 179.5 73t70.5 189q0 115 -71 186.5t-179 71.5q-106 0 -175 -71.5t-69 -186.5
q0 -117 69 -189.5t175 -72.5z" />
    <glyph glyph-name="Emacron" unicode="&#x112;" horiz-adv-x="1284" 
d="M965 1819v-226h-615v226h615zM1202 1126h-747v-249h643v-297h-643v-273h745v-307h-1077v1434h1079v-308z" />
    <glyph glyph-name="emacron" unicode="&#x113;" horiz-adv-x="1222" 
d="M309 1204v226h615v-226h-615zM635 -29q-256 0 -415 152.5t-159 396.5q0 240 153 396.5t400 156.5q252 0 399.5 -153.5t147.5 -387.5q0 -61 -8 -108h-772q37 -180 260 -180q150 0 209 106l295 -86q-49 -113 -184.5 -203t-325.5 -90zM381 621h461q-8 74 -70.5 126t-159 52
t-158 -53t-73.5 -125z" />
    <glyph glyph-name="Edotaccent" unicode="&#x116;" horiz-adv-x="1284" 
d="M657.5 1550q-73.5 0 -126 51.5t-52.5 124.5q0 72 52.5 123.5t126 51.5t126 -51.5t52.5 -123.5q0 -74 -52.5 -125t-126 -51zM1202 1126h-747v-249h643v-297h-643v-273h745v-307h-1077v1434h1079v-308z" />
    <glyph glyph-name="edotaccent" unicode="&#x117;" horiz-adv-x="1222" 
d="M616.5 1161q-73.5 0 -126 51.5t-52.5 124.5q0 72 52.5 123t126 51t126 -51t52.5 -123q0 -74 -52.5 -125t-126 -51zM635 -29q-256 0 -415 152.5t-159 396.5q0 240 153 396.5t400 156.5q252 0 399.5 -153.5t147.5 -387.5q0 -61 -8 -108h-772q37 -180 260 -180
q150 0 209 106l295 -86q-49 -113 -184.5 -203t-325.5 -90zM381 621h461q-8 74 -70.5 126t-159 52t-158 -53t-73.5 -125z" />
    <glyph glyph-name="Eogonek" unicode="&#x118;" horiz-adv-x="1284" 
d="M1233 -190l53 -168q-31 -41 -95.5 -71t-141.5 -30q-98 0 -164 57.5t-66 149.5q0 133 150 252h-846v1434h1079v-308h-747v-249h643v-297h-643v-273h745v-307q-61 -45 -102 -101.5t-41 -91.5q0 -57 57 -57q72 1 119 60z" />
    <glyph glyph-name="eogonek" unicode="&#x119;" horiz-adv-x="1222" 
d="M1161 532q0 -61 -8 -108h-772q37 -180 260 -180q150 0 209 106l295 -86q-51 -115 -172 -196q-84 -63 -136.5 -135t-52.5 -121q0 -61 58 -62q72 0 119 60l53 -168q-31 -41 -95.5 -71t-142.5 -30q-98 0 -163.5 57.5t-65.5 149.5q0 123 115 223h-27q-256 0 -415 152.5
t-159 396.5q0 240 153 396.5t400 156.5q252 0 399.5 -154t147.5 -387zM381 621h461q-8 74 -70.5 126t-159 52t-158 -53t-73.5 -125z" />
    <glyph glyph-name="Ecaron" unicode="&#x11a;" horiz-adv-x="1284" 
d="M504 1577l-223 307h286l90 -143l91 143h286l-223 -307h-307zM1202 1126h-747v-249h643v-297h-643v-273h745v-307h-1077v1434h1079v-308z" />
    <glyph glyph-name="ecaron" unicode="&#x11b;" horiz-adv-x="1222" 
d="M463 1188l-223 307h286l90 -143l91 143h286l-223 -307h-307zM1161 532q0 -61 -8 -108h-772q37 -180 260 -180q150 0 209 106l295 -86q-49 -113 -184.5 -203t-325.5 -90q-256 0 -415 152.5t-159 396.5q0 240 153 396.5t400 156.5q252 0 399.5 -154t147.5 -387zM381 621
h461q-8 74 -70.5 126t-159 52t-158 -53t-73.5 -125z" />
    <glyph glyph-name="Gbreve" unicode="&#x11e;" horiz-adv-x="1636" 
d="M829.5 1550q-176.5 0 -267.5 89.5t-91 226.5h248q0 -121 110.5 -121t110.5 121h248q0 -137 -91 -226.5t-267.5 -89.5zM1569 815v-170q0 -295 -201 -484.5t-528 -189.5q-334 0 -553 214t-219 531.5t217 531.5t538 214q260 0 443.5 -127t255.5 -317l-316 -90
q-113 215 -379 215q-182 0 -298.5 -123t-116.5 -301t119.5 -305t334.5 -127q145 0 234.5 69.5t111.5 167.5l-376 -2v293h733z" />
    <glyph glyph-name="gbreve" unicode="&#x11f;" horiz-adv-x="1310" 
d="M645 1161q-176 0 -267 89t-91 227h248q0 -121 110.5 -121t110.5 121h248q0 -137 -91.5 -226.5t-267.5 -89.5zM860 1044h328v-1005q0 -221 -149.5 -359.5t-399.5 -138.5q-356 0 -506 273l283 102q70 -109 231 -109q104 0 158.5 63.5t54.5 166.5v100q-115 -125 -289 -125
q-221 0 -365.5 152.5t-144.5 378.5q0 238 143.5 384t366.5 146q174 0 289 -125v96zM628.5 305q108.5 0 174 65.5t65.5 172t-65.5 172t-174 65.5t-176 -65.5t-67.5 -172t67.5 -172t176 -65.5z" />
    <glyph glyph-name="Gdotaccent" unicode="&#x120;" horiz-adv-x="1636" 
d="M829.5 1550q-73.5 0 -126 51.5t-52.5 124.5q0 72 52.5 123.5t126 51.5t126 -51.5t52.5 -123.5q0 -74 -52.5 -125t-126 -51zM1569 815v-170q0 -295 -201 -484.5t-528 -189.5q-334 0 -553 214t-219 531.5t217 531.5t538 214q260 0 443.5 -127t255.5 -317l-316 -90
q-113 215 -379 215q-182 0 -298.5 -123t-116.5 -301t119.5 -305t334.5 -127q145 0 234.5 69.5t111.5 167.5l-376 -2v293h733z" />
    <glyph glyph-name="gdotaccent" unicode="&#x121;" horiz-adv-x="1310" 
d="M645 1161q-74 0 -126 51.5t-52 124.5q0 72 52 123t126 51t126 -51t52 -123q0 -74 -52 -125t-126 -51zM860 1044h328v-1005q0 -221 -149.5 -359.5t-399.5 -138.5q-356 0 -506 273l283 102q70 -109 231 -109q104 0 158.5 63.5t54.5 166.5v100q-115 -125 -289 -125
q-221 0 -365.5 152.5t-144.5 378.5q0 238 143.5 384t366.5 146q174 0 289 -125v96zM628.5 305q108.5 0 174 65.5t65.5 172t-65.5 172t-174 65.5t-176 -65.5t-67.5 -172t67.5 -172t176 -65.5z" />
    <glyph glyph-name="Gcommaaccent" unicode="&#x122;" horiz-adv-x="1636" 
d="M1569 815v-170q0 -295 -201 -484.5t-528 -189.5q-334 0 -553 214t-219 531.5t217 531.5t538 214q260 0 443.5 -127t255.5 -317l-316 -90q-113 215 -379 215q-182 0 -298.5 -123t-116.5 -301t119.5 -305t334.5 -127q145 0 234.5 69.5t111.5 167.5l-376 -2v293h733z
M672 -553l26 430h293l-67 -430h-252z" />
    <glyph glyph-name="gcommaaccent" unicode="&#x123;" horiz-adv-x="1310" 
d="M815 1647l-27 -430h-292l67 430h252zM860 1044h328v-1005q0 -221 -149.5 -359.5t-399.5 -138.5q-356 0 -506 273l283 102q70 -109 231 -109q104 0 158.5 63.5t54.5 166.5v100q-115 -125 -289 -125q-221 0 -365.5 152.5t-144.5 378.5q0 238 143.5 384t366.5 146
q174 0 289 -125v96zM628.5 305q108.5 0 174 65.5t65.5 172t-65.5 172t-174 65.5t-176 -65.5t-67.5 -172t67.5 -172t176 -65.5z" />
    <glyph glyph-name="Hbar" unicode="&#x126;" horiz-adv-x="1556" 
d="M1536 1257v-204h-133v-1053h-340v575h-565v-575h-340v1053h-138v204h138v177h340v-177h565v177h340v-177h133zM1063 883v170h-565v-170h565z" />
    <glyph glyph-name="hbar" unicode="&#x127;" horiz-adv-x="1288" 
d="M768 1073q203 0 305.5 -125t102.5 -340v-608h-328v543q0 227 -186 227q-94 0 -148.5 -69.5t-54.5 -190.5v-510h-328v1157h-131v184h131v154h328v-154h299v-184h-299v-221q119 137 309 137z" />
    <glyph glyph-name="Imacron" unicode="&#x12a;" horiz-adv-x="589" 
d="M-12 1593v226h614v-226h-614zM123 0v1434h344v-1434h-344z" />
    <glyph glyph-name="imacron" unicode="&#x12b;" horiz-adv-x="573" 
d="M-20 1204v226h614v-226h-614zM123 0v1044h328v-1044h-328z" />
    <glyph glyph-name="Iogonek" unicode="&#x12e;" horiz-adv-x="589" 
d="M500 -190l53 -168q-31 -41 -95.5 -71t-142.5 -30q-98 0 -163.5 57.5t-65.5 149.5q0 133 150 252h-113v1434h344v-1434q-61 -45 -102 -101.5t-41 -91.5q0 -57 57 -57q72 1 119 60z" />
    <glyph glyph-name="iogonek" unicode="&#x12f;" horiz-adv-x="573" 
d="M286.5 1161q-73.5 0 -125.5 51.5t-52 124.5q0 72 52 123t125.5 51t126 -51t52.5 -123q0 -74 -52.5 -125t-126 -51zM483 -190l54 -168q-31 -41 -95.5 -71t-142.5 -30q-98 0 -163.5 57.5t-65.5 149.5q0 133 149 252h-96v1044h328v-1044q-61 -45 -102.5 -101.5t-41.5 -91.5
q0 -57 58 -57q71 1 118 60z" />
    <glyph glyph-name="Idotaccent" unicode="&#x130;" horiz-adv-x="589" 
d="M295 1550q-74 0 -126 51.5t-52 124.5q0 72 52 123.5t126 51.5t126 -51.5t52 -123.5q0 -74 -52 -125t-126 -51zM123 0v1434h344v-1434h-344z" />
    <glyph glyph-name="dotlessi" unicode="&#x131;" horiz-adv-x="573" 
d="M123 0v1044h328v-1044h-328z" />
    <glyph glyph-name="Kcommaaccent" unicode="&#x136;" horiz-adv-x="1464" 
d="M864 815l590 -815h-412l-401 563l-178 -201v-362h-340v1434h340v-623l520 623h430zM547 -553l26 430h293l-67 -430h-252z" />
    <glyph glyph-name="kcommaaccent" unicode="&#x137;" horiz-adv-x="1175" 
d="M754 598l422 -598h-369l-256 362l-100 -114v-248h-328v1495h328v-833l313 382h377zM451 -553l26 430h293l-68 -430h-251z" />
    <glyph glyph-name="Lacute" unicode="&#x139;" horiz-adv-x="1177" 
d="M664 1884l-234 -291h-276l153 291h357zM463 311h674v-311h-1014v1434h340v-1123z" />
    <glyph glyph-name="lacute" unicode="&#x13a;" horiz-adv-x="573" 
d="M123 1655l153 291h357l-234 -291h-276zM123 0v1495h328v-1495h-328z" />
    <glyph glyph-name="Lcommaaccent" unicode="&#x13b;" horiz-adv-x="1177" 
d="M463 311h674v-311h-1014v1434h340v-1123zM455 -553l26 430h293l-67 -430h-252z" />
    <glyph glyph-name="lcommaaccent" unicode="&#x13c;" horiz-adv-x="573" 
d="M123 0v1495h328v-1495h-328zM113 -553l26 430h293l-67 -430h-252z" />
    <glyph glyph-name="Lcaron" unicode="&#x13d;" horiz-adv-x="1177" 
d="M463 1434v-1123h674v-311h-1014v1434h340zM1137 1434l-66 -373h-256l21 373h301z" />
    <glyph glyph-name="lcaron" unicode="&#x13e;" horiz-adv-x="858" 
d="M123 0v1495h328v-1495h-328zM559 1061l27 434h293l-68 -434h-252z" />
    <glyph glyph-name="Lslash" unicode="&#x141;" horiz-adv-x="1177" 
d="M463 311h674v-311h-1014v477l-92 -39v287l92 39v670h340v-523l383 166v-286l-383 -166v-314z" />
    <glyph glyph-name="lslash" unicode="&#x142;" horiz-adv-x="688" 
d="M668 1096v-287l-160 -76v-723h-328v572l-160 -76v287l160 75v637h328v-485z" />
    <glyph glyph-name="Nacute" unicode="&#x143;" 
d="M1100 1884l-234 -291h-276l153 291h357zM1044 1434h340v-1434h-276l-645 821v-821h-340v1434h276l645 -822v822z" />
    <glyph glyph-name="nacute" unicode="&#x144;" horiz-adv-x="1280" 
d="M997 1495l-233 -291h-277l154 291h356zM760 1073q203 0 305 -125t102 -340v-608h-327v543q0 227 -187 227q-94 0 -148 -69.5t-54 -190.5v-510h-328v1044h328v-108q119 137 309 137z" />
    <glyph glyph-name="Ncommaaccent" unicode="&#x145;" 
d="M1044 1434h340v-1434h-276l-645 821v-821h-340v1434h276l645 -822v822zM594 -553l27 430h292l-67 -430h-252z" />
    <glyph glyph-name="ncommaaccent" unicode="&#x146;" horiz-adv-x="1280" 
d="M760 1073q203 0 305 -125t102 -340v-608h-327v543q0 227 -187 227q-94 0 -148 -69.5t-54 -190.5v-510h-328v1044h328v-108q119 137 309 137zM481 -553l27 430h293l-68 -430h-252z" />
    <glyph glyph-name="Ncaron" unicode="&#x147;" 
d="M600 1577l-223 307h287l90 -143l90 143h286l-223 -307h-307zM1044 1434h340v-1434h-276l-645 821v-821h-340v1434h276l645 -822v822z" />
    <glyph glyph-name="ncaron" unicode="&#x148;" horiz-adv-x="1280" 
d="M498 1188l-224 307h287l90 -143l90 143h287l-223 -307h-307zM760 1073q203 0 305 -125t102 -340v-608h-327v543q0 227 -187 227q-94 0 -148 -69.5t-54 -190.5v-510h-328v1044h328v-108q119 137 309 137z" />
    <glyph glyph-name="Eng" unicode="&#x14a;" 
d="M1044 1434h340v-1434q0 -207 -95 -320.5t-290 -113.5q-102 0 -206 45l71 250q37 -20 92 -21q90 0 91 133v105l-584 743v-821h-340v1434h276l645 -822v822z" />
    <glyph glyph-name="eng" unicode="&#x14b;" horiz-adv-x="1280" 
d="M760 1073q203 0 305 -125t102 -340v-608q0 -219 -95 -340t-290 -121q-104 0 -207 47l72 250q37 -20 80 -20q113 0 113 153v574q0 227 -187 227q-94 0 -148 -69.5t-54 -190.5v-510h-328v1044h328v-108q119 137 309 137z" />
    <glyph glyph-name="Omacron" unicode="&#x14c;" horiz-adv-x="1654" 
d="M520 1593v226h615v-226h-615zM827.5 -29q-327.5 0 -543.5 213t-216 532.5t216 532.5t543.5 213t543.5 -213t216 -532.5t-216 -532.5t-543.5 -213zM827.5 285q186.5 0 301 122.5t114.5 309t-114.5 309.5t-301 123t-301 -123t-114.5 -309.5t114.5 -309t301 -122.5z" />
    <glyph glyph-name="omacron" unicode="&#x14d;" horiz-adv-x="1245" 
d="M315 1204v226h615v-226h-615zM622.5 -29q-243.5 0 -402.5 158t-159 393.5t159 393t402.5 157.5t402.5 -157.5t159 -393t-159 -393.5t-402.5 -158zM622.5 266q110.5 0 177 72t66.5 184.5t-66.5 184t-177 71.5t-177 -71.5t-66.5 -184t66.5 -184.5t177 -72z" />
    <glyph glyph-name="Ohungarumlaut" unicode="&#x150;" horiz-adv-x="1654" 
d="M479 1593l168 291h293l-178 -291h-283zM868 1593l185 291h293l-195 -291h-283zM827.5 -29q-327.5 0 -543.5 213t-216 532.5t216 532.5t543.5 213t543.5 -213t216 -532.5t-216 -532.5t-543.5 -213zM827.5 285q186.5 0 301 122.5t114.5 309t-114.5 309.5t-301 123
t-301 -123t-114.5 -309.5t114.5 -309t301 -122.5z" />
    <glyph glyph-name="ohungarumlaut" unicode="&#x151;" horiz-adv-x="1245" 
d="M274 1204l168 291h293l-178 -291h-283zM664 1204l184 291h293l-195 -291h-282zM622.5 -29q-243.5 0 -402.5 158t-159 393.5t159 393t402.5 157.5t402.5 -157.5t159 -393t-159 -393.5t-402.5 -158zM622.5 266q110.5 0 177 72t66.5 184.5t-66.5 184t-177 71.5t-177 -71.5
t-66.5 -184t66.5 -184.5t177 -72z" />
    <glyph glyph-name="OE" unicode="&#x152;" horiz-adv-x="2064" 
d="M1982 1126h-659v-249h555v-297h-555v-273h657v-307h-1218q-307 0 -500.5 201.5t-193.5 515.5q0 319 192.5 518t501.5 199h1220v-308zM762 307h225v819h-225q-152 0 -251 -109.5t-99 -293.5t100 -300t250 -116z" />
    <glyph glyph-name="oe" unicode="&#x153;" horiz-adv-x="2027" 
d="M1966 532q0 -59 -10 -120h-764q20 -78 87 -126t163 -48q123 0 184 86l293 -88q-49 -106 -179 -185.5t-296 -79.5q-268 0 -422 181q-152 -180 -399 -181q-244 0 -403 158t-159 393.5t159 393t403 157.5q248 0 399 -180q150 180 401 180q254 0 398.5 -154t144.5 -387z
M1186 621h465q-10 78 -69.5 129t-156 51t-161 -53t-78.5 -127zM622.5 266q108.5 0 176 74t67.5 182.5t-67.5 182t-176 73.5t-176 -73.5t-67.5 -182t67.5 -182.5t176 -74z" />
    <glyph glyph-name="Racute" unicode="&#x154;" horiz-adv-x="1441" 
d="M1022 1884l-234 -291h-276l154 291h356zM1010 0l-305 471h-246v-471h-336v1434h717q227 0 367.5 -146.5t140.5 -337.5q0 -141 -77 -260t-216 -176l346 -514h-391zM459 1130v-362h356q88 0 145.5 53t57.5 129q0 74 -55.5 127t-133.5 53h-370z" />
    <glyph glyph-name="racute" unicode="&#x155;" horiz-adv-x="819" 
d="M774 1495l-233 -291h-277l154 291h356zM451 903q47 86 131 128t196 28v-307q-168 29 -247.5 -47t-79.5 -269v-436h-328v1044h328v-141z" />
    <glyph glyph-name="Rcommaaccent" unicode="&#x156;" horiz-adv-x="1441" 
d="M1055 514l346 -514h-391l-305 471h-246v-471h-336v1434h717q227 0 367.5 -146.5t140.5 -337.5q0 -141 -77 -260t-216 -176zM459 1130v-362h356q88 0 145.5 53t57.5 129q0 74 -55.5 127t-133.5 53h-370zM541 -553l26 430h293l-67 -430h-252z" />
    <glyph glyph-name="rcommaaccent" unicode="&#x157;" horiz-adv-x="819" 
d="M451 903q47 86 131 128t196 28v-307q-168 29 -247.5 -47t-79.5 -269v-436h-328v1044h328v-141zM115 -553l26 430h293l-67 -430h-252z" />
    <glyph glyph-name="Rcaron" unicode="&#x158;" horiz-adv-x="1441" 
d="M522 1577l-223 307h287l90 -143l90 143h287l-224 -307h-307zM1010 0l-305 471h-246v-471h-336v1434h717q227 0 367.5 -146.5t140.5 -337.5q0 -141 -77 -260t-216 -176l346 -514h-391zM459 1130v-362h356q88 0 145.5 53t57.5 129q0 74 -55.5 127t-133.5 53h-370z" />
    <glyph glyph-name="rcaron" unicode="&#x159;" horiz-adv-x="819" 
d="M274 1188l-223 307h287l90 -143l90 143h287l-223 -307h-308zM451 903q47 86 131 128t196 28v-307q-168 29 -247.5 -47t-79.5 -269v-436h-328v1044h328v-141z" />
    <glyph glyph-name="Sacute" unicode="&#x15a;" horiz-adv-x="1374" 
d="M518 1593l154 291h356l-233 -291h-277zM725 -29q-254 0 -430 126t-244 309l324 100q43 -106 139 -172t231 -66q100 0 162 40t62 95q0 88 -154 138l-369 114q-150 47 -239.5 145.5t-87.5 233.5q-2 178 149.5 303t380.5 125q227 0 400.5 -109.5t232.5 -267.5l-313 -92
q-43 76 -128 124t-188 48q-86 0 -138 -33.5t-52 -84.5q0 -74 96 -103l361 -115q188 -59 290.5 -148t102.5 -255q0 -195 -163 -325t-425 -130z" />
    <glyph glyph-name="sacute" unicode="&#x15b;" horiz-adv-x="1073" 
d="M358 1204l154 291h356l-233 -291h-277zM547 -29q-193 0 -337 95.5t-185 228.5l292 86q27 -68 90.5 -110t151.5 -42q59 0 95 22.5t36 53.5q0 51 -98 80l-250 74q-264 80 -264 291q0 137 128 230t306 93q168 0 295 -71.5t178 -194.5l-287 -82q-70 98 -188 98
q-45 0 -78 -18.5t-33 -46.5q0 -41 60 -62l241 -67q72 -20 120 -41t96.5 -55.5t72 -88t23.5 -125.5q0 -152 -130 -250t-335 -98z" />
    <glyph glyph-name="Scedilla" unicode="&#x15e;" horiz-adv-x="1374" 
d="M1313 426q0 -174 -130 -298t-347 -151l-29 -86q59 -10 99 -56t40 -103q0 -88 -67.5 -139.5t-180.5 -51.5q-129 0 -221 72l35 121q55 -39 133 -38t78 54q0 45 -57.5 61.5t-110.5 0.5l53 168q-209 27 -353 146.5t-204 279.5l324 100q43 -106 139 -172t231 -66q100 0 162 40
t62 95q0 88 -154 138l-369 114q-150 47 -239.5 145.5t-87.5 233.5q-2 178 149.5 303t380.5 125q227 0 400.5 -109.5t232.5 -267.5l-313 -92q-43 76 -128 124t-188 48q-86 0 -138 -33.5t-52 -84.5q0 -74 96 -103l361 -115q188 -59 290.5 -148t102.5 -255z" />
    <glyph glyph-name="scedilla" unicode="&#x15f;" horiz-adv-x="1073" 
d="M1012 319q0 -127 -93.5 -218t-250.5 -119l-29 -91q59 -10 99 -56t40 -103q0 -88 -67.5 -139.5t-180.5 -51.5q-129 0 -221 72l35 121q55 -39 133 -38t78 54q0 45 -57.5 61.5t-110.5 0.5l53 168q-156 25 -268.5 113.5t-146.5 201.5l292 86q27 -68 90.5 -110t151.5 -42
q59 0 95 22.5t36 53.5q0 51 -98 80l-250 74q-264 80 -264 291q0 137 128 230t306 93q168 0 295 -71.5t178 -194.5l-287 -82q-70 98 -188 98q-45 0 -78 -18.5t-33 -46.5q0 -41 60 -62l241 -67q72 -20 120 -41t96.5 -55.5t72 -88t23.5 -125.5z" />
    <glyph glyph-name="Scaron" unicode="&#x160;" horiz-adv-x="1374" 
d="M528 1577l-223 307h287l90 -143l90 143h287l-223 -307h-308zM920 829q188 -59 290.5 -148t102.5 -255q0 -195 -163 -325t-425 -130q-254 0 -430 126t-244 309l324 100q43 -106 139 -172t231 -66q100 0 162 40t62 95q0 88 -154 138l-369 114q-150 47 -239.5 145.5
t-87.5 233.5q-2 178 149.5 303t380.5 125q227 0 400.5 -109.5t232.5 -267.5l-313 -92q-43 76 -128 124t-188 48q-86 0 -138 -33.5t-52 -84.5q0 -74 96 -103z" />
    <glyph glyph-name="scaron" unicode="&#x161;" horiz-adv-x="1073" 
d="M369 1188l-224 307h287l90 -143l90 143h287l-223 -307h-307zM700 629q72 -20 120 -41t96.5 -55.5t72 -88t23.5 -125.5q0 -152 -130 -250t-335 -98q-193 0 -337 95.5t-185 228.5l292 86q27 -68 90.5 -110t151.5 -42q59 0 95 22.5t36 53.5q0 51 -98 80l-250 74
q-264 80 -264 291q0 137 128 230t306 93q168 0 295 -71.5t178 -194.5l-287 -82q-70 98 -188 98q-45 0 -78 -18.5t-33 -46.5q0 -41 60 -62z" />
    <glyph glyph-name="Tcommaaccent" unicode="&#x162;" horiz-adv-x="1314" 
d="M827 1126v-1126l-34 -109q59 -10 99 -56t40 -103q0 -88 -67.5 -139.5t-180.5 -51.5q-129 0 -221 72l35 121q55 -39 133 -38t78 54q0 45 -57.5 61.5t-110.5 0.5l59 188h-113v1126h-456v308h1253v-308h-457z" />
    <glyph glyph-name="tcommaaccent" unicode="&#x163;" horiz-adv-x="847" 
d="M614 -109q59 -10 99.5 -56t40.5 -103q0 -88 -68 -139.5t-180 -51.5q-129 0 -221 72l34 121q55 -39 133 -38t78 54q0 45 -57 61.5t-111 0.5l60 188q-240 66 -240 377v381h-162v286h162v328h328v-328h281v-286h-281v-381q0 -109 108 -109q59 0 111 27l78 -260
q-82 -33 -162 -45z" />
    <glyph glyph-name="Tcaron" unicode="&#x164;" horiz-adv-x="1314" 
d="M504 1577l-223 307h286l90 -143l91 143h286l-223 -307h-307zM1284 1434v-308h-457v-1126h-340v1126h-456v308h1253z" />
    <glyph glyph-name="tcaron" unicode="&#x165;" horiz-adv-x="907" 
d="M635 1495h293l-66 -373h-248zM618 268q59 0 111 27l78 -260q-129 -51 -256 -51q-184 0 -276.5 104.5t-92.5 288.5v381h-162v286h162v328h328v-328h281v-286h-281v-381q-1 -109 108 -109z" />
    <glyph glyph-name="Tbar" unicode="&#x166;" horiz-adv-x="1314" 
d="M1284 1126h-457v-315h277v-266h-277v-545h-340v545h-284v266h284v315h-456v308h1253v-308z" />
    <glyph glyph-name="tbar" unicode="&#x167;" horiz-adv-x="854" 
d="M735 295l78 -260q-129 -51 -262 -51q-184 0 -276.5 104.5t-92.5 288.5v102h-147v205h147v135h-162v225h162v328h328v-328h287v-225h-287v-135h244v-205h-244v-102q0 -109 119 -109q59 0 106 27z" />
    <glyph glyph-name="Umacron" unicode="&#x16a;" horiz-adv-x="1499" 
d="M1057 1819v-226h-615v226h615zM1042 1434h344v-838q0 -283 -167.5 -454t-468.5 -171q-303 0 -470 171t-167 454v838h344v-832q0 -143 74.5 -231t218 -88t218 88t74.5 231v832z" />
    <glyph glyph-name="umacron" unicode="&#x16b;" horiz-adv-x="1280" 
d="M946 1430v-226h-614v226h614zM829 1044h328v-1044h-328v109q-119 -137 -309 -138q-203 0 -305 125t-102 340v608h327v-542q0 -227 187 -228q94 0 148 70t54 191v509z" />
    <glyph glyph-name="Uring" unicode="&#x16e;" horiz-adv-x="1499" 
d="M749.5 1499q-114.5 0 -190.5 74t-76 184.5t76 184t190.5 73.5t190.5 -73.5t76 -184t-76 -184.5t-190.5 -74zM749.5 1843q-38.5 0 -63 -24.5t-24.5 -61.5q0 -39 24.5 -62.5t63 -23.5t63.5 23.5t25 62.5q0 37 -25 61.5t-63.5 24.5zM1042 1434h344v-838q0 -283 -167.5 -454
t-468.5 -171q-303 0 -470 171t-167 454v838h344v-832q0 -143 74.5 -231t218 -88t218 88t74.5 231v832z" />
    <glyph glyph-name="uring" unicode="&#x16f;" horiz-adv-x="1280" 
d="M639 1110q-115 0 -190.5 73.5t-75.5 184.5t75.5 184.5t190.5 73.5t190.5 -73.5t75.5 -184.5t-75.5 -184.5t-190.5 -73.5zM639 1454q-39 0 -63.5 -24.5t-24.5 -61.5q0 -39 24.5 -62.5t63.5 -23.5t63.5 23.5t24.5 62.5q0 37 -24.5 61.5t-63.5 24.5zM829 1044h328v-1044
h-328v109q-119 -137 -309 -138q-203 0 -305 125t-102 340v608h327v-542q0 -227 187 -228q94 0 148 70t54 191v509z" />
    <glyph glyph-name="Uhungarumlaut" unicode="&#x170;" horiz-adv-x="1499" 
d="M862 1884l-178 -291h-283l168 291h293zM1073 1593h-282l184 291h293zM1042 1434h344v-838q0 -283 -167.5 -454t-468.5 -171q-303 0 -470 171t-167 454v838h344v-832q0 -143 74.5 -231t218 -88t218 88t74.5 231v832z" />
    <glyph glyph-name="uhungarumlaut" unicode="&#x171;" horiz-adv-x="1280" 
d="M752 1495l-179 -291h-282l168 291h293zM963 1204h-283l184 291h293zM829 535v509h328v-1044h-328v109q-119 -137 -309 -138q-203 0 -305 125t-102 340v608h327v-542q0 -227 187 -228q94 0 148 70t54 191z" />
    <glyph glyph-name="Uogonek" unicode="&#x172;" horiz-adv-x="1499" 
d="M1042 1434h344v-838q0 -342 -233 -510q-82 -63 -134 -137t-52 -121q0 -57 57 -57q72 0 119 59l53 -168q-31 -41 -95.5 -70.5t-142.5 -29.5q-98 0 -163.5 57t-65.5 150q0 104 98 206q-49 -4 -77 -4q-303 0 -470 171t-167 454v838h344v-832q0 -143 74.5 -231t218 -88
t218 88t74.5 231v832z" />
    <glyph glyph-name="uogonek" unicode="&#x173;" horiz-adv-x="1280" 
d="M1190 -190l53 -168q-31 -41 -95.5 -71t-141.5 -30q-98 0 -164 57.5t-66 149.5q0 133 150 252h-97v109q-119 -137 -309 -138q-203 0 -305 125t-102 340v608h327v-542q0 -227 187 -228q94 0 148 70t54 191v509h328v-1044q-61 -45 -102 -101.5t-41 -91.5q0 -57 57 -57
q72 1 119 60z" />
    <glyph glyph-name="Wcircumflex" unicode="&#x174;" horiz-adv-x="2066" 
d="M1034 1720l-90 -143h-287l224 307h307l223 -307h-287zM1708 1434h358l-428 -1434h-360l-244 852l-246 -852h-360l-428 1434h358l258 -947l265 947h305l264 -947z" />
    <glyph glyph-name="wcircumflex" unicode="&#x175;" horiz-adv-x="1705" 
d="M854 1331l-90 -143h-287l223 307h308l223 -307h-287zM1368 1044h338l-360 -1044h-304l-188 586l-190 -586h-304l-360 1044h338l190 -626l189 626h272l191 -626z" />
    <glyph glyph-name="Ycircumflex" unicode="&#x176;" horiz-adv-x="1415" 
d="M709 1720l-91 -143h-286l223 307h307l223 -307h-286zM1034 1434h381l-534 -918v-516h-344v516l-537 918h383l326 -586z" />
    <glyph glyph-name="ycircumflex" unicode="&#x177;" horiz-adv-x="1236" 
d="M627 1331l-90 -143h-287l223 307h307l224 -307h-287zM887 1044h350l-621 -1474h-333l186 455l14 2l-14 -2l-469 1019h358l273 -636z" />
    <glyph glyph-name="Ydieresis" unicode="&#x178;" horiz-adv-x="1415" 
d="M503.5 1538q-65.5 0 -111.5 46t-46 111.5t46 110.5t111.5 45t113 -46t47.5 -109q0 -66 -47.5 -112t-113 -46zM909.5 1538q-65.5 0 -111.5 46t-46 111.5t46 110.5t111.5 45t112.5 -46t47 -109q0 -66 -47 -112t-112.5 -46zM1034 1434h381l-534 -918v-516h-344v516l-537 918
h383l326 -586z" />
    <glyph glyph-name="Zacute" unicode="&#x179;" horiz-adv-x="1306" 
d="M997 1884l-233 -291h-277l154 291h356zM535 301h710v-301h-1184v227l697 906h-686v301h1153v-232z" />
    <glyph glyph-name="zacute" unicode="&#x17a;" horiz-adv-x="1099" 
d="M895 1495l-233 -291h-277l154 291h356zM510 268h518v-268h-950v205l497 571h-485v268h920v-204z" />
    <glyph glyph-name="Zdotaccent" unicode="&#x17b;" horiz-adv-x="1306" 
d="M651.5 1550q-73.5 0 -126 51.5t-52.5 124.5q0 72 52.5 123.5t126 51.5t125.5 -51.5t52 -123.5q0 -74 -52 -125t-125.5 -51zM535 301h710v-301h-1184v227l697 906h-686v301h1153v-232z" />
    <glyph glyph-name="zdotaccent" unicode="&#x17c;" horiz-adv-x="1099" 
d="M549 1161q-74 0 -126 51.5t-52 124.5q0 72 52 123t126 51t126 -51t52 -123q0 -74 -52 -125t-126 -51zM510 268h518v-268h-950v205l497 571h-485v268h920v-204z" />
    <glyph glyph-name="Zcaron" unicode="&#x17d;" horiz-adv-x="1306" 
d="M498 1577l-224 307h287l90 -143l90 143h287l-223 -307h-307zM535 301h710v-301h-1184v227l697 906h-686v301h1153v-232z" />
    <glyph glyph-name="zcaron" unicode="&#x17e;" horiz-adv-x="1099" 
d="M395 1188l-223 307h287l90 -143l90 143h287l-224 -307h-307zM510 268h518v-268h-950v205l497 571h-485v268h920v-204z" />
    <glyph glyph-name="florin" unicode="&#x192;" horiz-adv-x="1116" 
d="M831 1526q170 0 265 -88l-121 -244q-51 57 -129 57q-115 0 -133 -155l-21 -168h258v-266h-293l-69 -551q-27 -205 -136.5 -316.5t-285.5 -111.5q-164 0 -258 100l115 229q51 -57 127 -57q119 0 137 156l69 551h-221v266h254l21 168q27 207 134 318.5t287 111.5z" />
    <glyph glyph-name="Scommaaccent" unicode="&#x218;" horiz-adv-x="1374" 
d="M725 -29q-254 0 -430 126t-244 309l324 100q43 -106 139 -172t231 -66q100 0 162 40t62 95q0 88 -154 138l-369 114q-150 47 -239.5 145.5t-87.5 233.5q-2 178 149.5 303t380.5 125q227 0 400.5 -109.5t232.5 -267.5l-313 -92q-43 76 -128 124t-188 48q-86 0 -138 -33.5
t-52 -84.5q0 -74 96 -103l361 -115q188 -59 290.5 -148t102.5 -255q0 -195 -163 -325t-425 -130zM543 -553l26 430h293l-67 -430h-252z" />
    <glyph glyph-name="scommaaccent" unicode="&#x219;" horiz-adv-x="1073" 
d="M547 -29q-193 0 -337 95.5t-185 228.5l292 86q27 -68 90.5 -110t151.5 -42q59 0 95 22.5t36 53.5q0 51 -98 80l-250 74q-264 80 -264 291q0 137 128 230t306 93q168 0 295 -71.5t178 -194.5l-287 -82q-70 98 -188 98q-45 0 -78 -18.5t-33 -46.5q0 -41 60 -62l241 -67
q72 -20 120 -41t96.5 -55.5t72 -88t23.5 -125.5q0 -152 -130 -250t-335 -98zM375 -553l26 430h293l-67 -430h-252z" />
    <glyph glyph-name="uni021A" unicode="&#x21a;" horiz-adv-x="1314" 
d="M1284 1434v-308h-457v-1126h-340v1126h-456v308h1253zM489 -557l27 434h293l-68 -434h-252z" />
    <glyph glyph-name="uni021B" unicode="&#x21b;" horiz-adv-x="847" 
d="M807 35q-129 -51 -256 -51q-184 0 -276.5 104.5t-92.5 288.5v381h-162v286h162v328h328v-328h281v-286h-281v-381q0 -109 108 -109q59 0 111 27zM334 -557l26 434h293l-67 -434h-252z" />
    <glyph glyph-name="circumflex" unicode="&#x2c6;" horiz-adv-x="753" 
d="M754 1188h-287l-90 143l-90 -143h-287l223 307h307z" />
    <glyph glyph-name="caron" unicode="&#x2c7;" horiz-adv-x="753" 
d="M467 1495h287l-224 -307h-307l-223 307h287l90 -143z" />
    <glyph glyph-name="breve" unicode="&#x2d8;" horiz-adv-x="716" 
d="M358.5 1161q-176.5 0 -267.5 89t-91 227h248q0 -121 110.5 -121t110.5 121h248q0 -137 -91 -226.5t-267.5 -89.5z" />
    <glyph glyph-name="dotaccent" unicode="&#x2d9;" horiz-adv-x="356" 
d="M178 1165q-74 0 -126 51.5t-52 124.5q0 72 52 123.5t126 51.5t126 -51.5t52 -123.5q0 -74 -52 -125t-126 -51z" />
    <glyph glyph-name="ring" unicode="&#x2da;" horiz-adv-x="532" 
d="M266.5 1110q-114.5 0 -190.5 73.5t-76 184.5t76 184.5t190.5 73.5t190 -73.5t75.5 -184.5t-75.5 -184.5t-190 -73.5zM266 1282q39 0 63.5 23.5t24.5 62.5q0 37 -24.5 61.5t-63.5 24.5t-63.5 -24.5t-24.5 -61.5q0 -39 24.5 -62.5t63.5 -23.5z" />
    <glyph glyph-name="ogonek" unicode="&#x2db;" horiz-adv-x="466" 
d="M229 -459q-98 0 -163.5 57.5t-65.5 149.5q0 133 150 252h231q-61 -45 -102 -101.5t-41 -91.5q0 -57 57 -57q72 0 119 60l53 -168q-31 -41 -95.5 -71t-142.5 -30z" />
    <glyph glyph-name="tilde" unicode="&#x2dc;" horiz-adv-x="716" 
d="M504 1167q-66 0 -151 48.5t-103 48.5q-43 0 -43 -88h-207q0 319 213 319q66 0 151 -48t103 -48q43 0 43 88h207q0 -320 -213 -320z" />
    <glyph glyph-name="hungarumlaut" unicode="&#x2dd;" horiz-adv-x="866" 
d="M0 1204l168 291h293l-178 -291h-283zM389 1204l184 291h293l-194 -291h-283z" />
    <glyph glyph-name="gravecomb" unicode="&#x300;" horiz-adv-x="0" 
d="M0 1204h-276l-234 291h356z" />
    <glyph glyph-name="acutecomb" unicode="&#x301;" horiz-adv-x="0" 
d="M-510 1204l154 291h356l-233 -291h-277z" />
    <glyph glyph-name="uni0302" unicode="&#x302;" horiz-adv-x="0" 
d="M0 1188h-287l-90 143l-90 -143h-287l224 307h307z" />
    <glyph glyph-name="tildecomb" unicode="&#x303;" horiz-adv-x="0" 
d="M-213 1167q-66 0 -151 48.5t-103 48.5q-43 0 -43 -88h-207q0 319 213 319q66 0 151 -48t103 -48q43 0 43 88h207q0 -320 -213 -320z" />
    <glyph glyph-name="uni0304" unicode="&#x304;" horiz-adv-x="0" 
d="M-614 1204v226h614v-226h-614z" />
    <glyph glyph-name="uni0306" unicode="&#x306;" horiz-adv-x="0" 
d="M-358.5 1161q-176.5 0 -267.5 89t-91 227h248q0 -121 110.5 -121t110.5 121h248q0 -137 -91 -226.5t-267.5 -89.5z" />
    <glyph glyph-name="uni0307" unicode="&#x307;" horiz-adv-x="0" 
d="M-178 1161q-74 0 -126 51.5t-52 124.5q0 72 52 123t126 51t126 -51t52 -123q0 -74 -52 -125t-126 -51z" />
    <glyph glyph-name="uni0308" unicode="&#x308;" horiz-adv-x="0" 
d="M-565.5 1149q-65.5 0 -111.5 46t-46 111.5t46 110.5t111.5 45t112.5 -46t47 -109q0 -66 -47 -112t-112.5 -46zM-159.5 1149q-65.5 0 -111.5 46t-46 111.5t46 110.5t111.5 45t112.5 -46t47 -109q0 -66 -47 -112t-112.5 -46z" />
    <glyph glyph-name="uni030A" unicode="&#x30a;" horiz-adv-x="0" 
d="M-266.5 1110q-114.5 0 -190 73.5t-75.5 184.5t75.5 184.5t190 73.5t190.5 -73.5t76 -184.5t-76 -184.5t-190.5 -73.5zM-266 1282q39 0 63.5 23.5t24.5 62.5q0 37 -24.5 61.5t-63.5 24.5t-63.5 -24.5t-24.5 -61.5q0 -39 24.5 -62.5t63.5 -23.5z" />
    <glyph glyph-name="uni030B" unicode="&#x30b;" horiz-adv-x="0" 
d="M-866 1204l168 291h292l-178 -291h-282zM-477 1204l184 291h293l-195 -291h-282z" />
    <glyph glyph-name="uni030C" unicode="&#x30c;" horiz-adv-x="0" 
d="M-287 1495h287l-223 -307h-307l-224 307h287l90 -143z" />
    <glyph glyph-name="uni0312" unicode="&#x312;" horiz-adv-x="0" 
d="M0 1647l-27 -430h-292l67 430h252z" />
    <glyph glyph-name="uni0326" unicode="&#x326;" horiz-adv-x="0" 
d="M-319 -553l26 430h293l-68 -430h-251z" />
    <glyph glyph-name="uni0327" unicode="&#x327;" horiz-adv-x="0" 
d="M-248 -459q-129 0 -221 72l35 121q55 -39 133 -38t78 54q0 45 -57.5 61.5t-110.5 0.5l59 188h228l-35 -109q59 -10 99 -56t40 -103q0 -88 -67.5 -139.5t-180.5 -51.5z" />
    <glyph glyph-name="uni0328" unicode="&#x328;" horiz-adv-x="0" 
d="M-238 -459q-98 0 -163.5 57.5t-65.5 149.5q0 133 150 252h231q-61 -45 -102 -101.5t-41 -91.5q0 -57 57 -57q72 0 119 60l53 -168q-31 -41 -95.5 -71t-142.5 -30z" />
    <glyph glyph-name="Delta" unicode="&#x394;" horiz-adv-x="1495" 
d="M971 1434l524 -1434h-1495l524 1434h447zM459 301h577l-288 803z" />
    <glyph glyph-name="Omega" unicode="&#x3a9;" horiz-adv-x="1642" 
d="M1581 776q0 -287 -215 -479h215v-297h-612v297q119 53 196.5 177t77.5 253q0 184 -116.5 303t-305 119t-305.5 -119t-117 -303q0 -129 79 -253t198 -177v-297h-615v297h215q-215 193 -215 479q0 285 217.5 485.5t543 200.5t542.5 -200.5t217 -485.5z" />
    <glyph glyph-name="mu" unicode="&#x3bc;" horiz-adv-x="1374" 
d="M1296 258l68 -250q-92 -37 -176 -37q-207 0 -291 125q-109 -125 -289 -125q-80 0 -157 31v-432h-328v1474h328v-542q0 -227 186 -228q94 0 148.5 70t54.5 191v509h327v-702q0 -96 70 -96q22 0 59 12z" />
    <glyph glyph-name="pi" unicode="&#x3c0;" horiz-adv-x="1331" 
d="M1233 256l67 -240q-84 -37 -178 -36q-324 0 -323 360v416h-271v-756h-307v756h-190v286h1263v-286h-188v-416q0 -94 65 -94q31 0 62 10z" />
    <glyph glyph-name="Wgrave" unicode="&#x1e80;" horiz-adv-x="2066" 
d="M1198 1593h-276l-234 291h356zM1708 1434h358l-428 -1434h-360l-244 852l-246 -852h-360l-428 1434h358l258 -947l265 947h305l264 -947z" />
    <glyph glyph-name="wgrave" unicode="&#x1e81;" horiz-adv-x="1705" 
d="M1018 1204h-277l-233 291h356zM1368 1044h338l-360 -1044h-304l-188 586l-190 -586h-304l-360 1044h338l190 -626l189 626h272l191 -626z" />
    <glyph glyph-name="Wacute" unicode="&#x1e82;" horiz-adv-x="2066" 
d="M1380 1884l-233 -291h-277l154 291h356zM1708 1434h358l-428 -1434h-360l-244 852l-246 -852h-360l-428 1434h358l258 -947l265 947h305l264 -947z" />
    <glyph glyph-name="wacute" unicode="&#x1e83;" horiz-adv-x="1705" 
d="M1200 1495l-233 -291h-277l154 291h356zM1368 1044h338l-360 -1044h-304l-188 586l-190 -586h-304l-360 1044h338l190 -626l189 626h272l191 -626z" />
    <glyph glyph-name="Wdieresis" unicode="&#x1e84;" horiz-adv-x="2066" 
d="M829.5 1538q-65.5 0 -111.5 46t-46 111.5t46 110.5t111.5 45t112.5 -46t47 -109q0 -66 -47 -112t-112.5 -46zM1234.5 1538q-65.5 0 -111.5 46t-46 111.5t46 110.5t111.5 45t113 -46t47.5 -109q0 -66 -47.5 -112t-113 -46zM1708 1434h358l-428 -1434h-360l-244 852
l-246 -852h-360l-428 1434h358l258 -947l265 947h305l264 -947z" />
    <glyph glyph-name="wdieresis" unicode="&#x1e85;" horiz-adv-x="1705" 
d="M649.5 1149q-65.5 0 -111.5 46t-46 111.5t46 110.5t111.5 45t112.5 -46t47 -109q0 -66 -47 -112t-112.5 -46zM1054.5 1149q-65.5 0 -111.5 46t-46 111.5t46 110.5t111.5 45t112.5 -46t47 -109q0 -66 -47 -112t-112.5 -46zM1368 1044h338l-360 -1044h-304l-188 586
l-190 -586h-304l-360 1044h338l190 -626l189 626h272l191 -626z" />
    <glyph glyph-name="Ygrave" unicode="&#x1ef2;" horiz-adv-x="1415" 
d="M872 1593h-276l-234 291h357zM1034 1434h381l-534 -918v-516h-344v516l-537 918h383l326 -586z" />
    <glyph glyph-name="ygrave" unicode="&#x1ef3;" horiz-adv-x="1236" 
d="M791 1204h-277l-233 291h356zM887 1044h350l-621 -1474h-333l186 455l14 2l-14 -2l-469 1019h358l273 -636z" />
    <glyph glyph-name="endash" unicode="&#x2013;" horiz-adv-x="1249" 
d="M113 492v266h1024v-266h-1024z" />
    <glyph glyph-name="emdash" unicode="&#x2014;" horiz-adv-x="1863" 
d="M113 492v266h1638v-266h-1638z" />
    <glyph glyph-name="quoteleft" unicode="&#x2018;" horiz-adv-x="591" 
d="M510 1434l-90 -605h-338l174 605h254z" />
    <glyph glyph-name="quoteright" unicode="&#x2019;" horiz-adv-x="591" 
d="M82 829l90 605h338l-174 -605h-254z" />
    <glyph glyph-name="quotesinglbase" unicode="&#x201a;" horiz-adv-x="591" 
d="M82 -281l90 605h338l-174 -605h-254z" />
    <glyph glyph-name="quotedblleft" unicode="&#x201c;" horiz-adv-x="1021" 
d="M510 1434l-90 -605h-338l174 605h254zM940 1434l-90 -605h-338l174 605h254z" />
    <glyph glyph-name="quotedblright" unicode="&#x201d;" horiz-adv-x="1021" 
d="M82 829l90 605h338l-174 -605h-254zM512 829l90 605h338l-174 -605h-254z" />
    <glyph glyph-name="quotedblbase" unicode="&#x201e;" horiz-adv-x="1021" 
d="M82 -281l90 605h338l-174 -605h-254zM512 -281l90 605h338l-174 -605h-254z" />
    <glyph glyph-name="dagger" unicode="&#x2020;" horiz-adv-x="1044" 
d="M358 0v901h-297v297h297v297h328v-297h297v-297h-297v-901h-328z" />
    <glyph glyph-name="daggerdbl" unicode="&#x2021;" horiz-adv-x="1044" 
d="M358 0v297h-297v297h297v307h-297v297h297v297h328v-297h297v-297h-297v-307h297v-297h-297v-297h-328z" />
    <glyph glyph-name="bullet" unicode="&#x2022;" horiz-adv-x="737" 
d="M371 311q-121 2 -205 85t-84 202q0 115 83 192.5t206 81.5q119 2 201.5 -77.5t82.5 -196.5q0 -121 -82.5 -205t-201.5 -82z" />
    <glyph glyph-name="ellipsis" unicode="&#x2026;" horiz-adv-x="1550" 
d="M276 -16q-82 0 -138 55t-56 137q0 78 56.5 132t137.5 54q80 0 136.5 -54t56.5 -132q0 -82 -56.5 -137t-136.5 -55zM776 -16q-82 0 -138 55t-56 137q0 78 56 132t138 54q80 0 136.5 -54t56.5 -132q0 -82 -56.5 -137t-136.5 -55zM1276 -16q-82 0 -138.5 55t-56.5 137
q0 78 56.5 132t138.5 54q80 0 136 -54t56 -132q0 -82 -56 -137t-136 -55z" />
    <glyph glyph-name="perthousand" unicode="&#x2030;" horiz-adv-x="3133" 
d="M502 612q-180 0 -305 121t-125 297t123.5 297t306 121t306.5 -121t124 -297t-124 -297t-306 -121zM504 0l930 1434h254l-928 -1434h-256zM502 848q80 0 132 53t52 129q0 78 -52 130t-132 52t-132.5 -52t-52.5 -130q0 -76 52.5 -129t132.5 -53zM1692 -16
q-180 0 -305 120.5t-125 297t123.5 297t306 120.5t306.5 -120.5t124 -297t-124 -297t-306 -120.5zM2632 -16q-180 0 -305 120.5t-125 297t123.5 297t306 120.5t306.5 -120.5t124 -297t-124 -297t-306 -120.5zM1692 219q80 0 132 53.5t52 128.5q0 78 -52 130.5t-132 52.5
t-132.5 -52.5t-52.5 -130.5q0 -76 52.5 -129t132.5 -53zM2632 219q80 0 132 53.5t52 128.5q0 78 -52 130.5t-132 52.5t-132.5 -52.5t-52.5 -130.5q0 -76 52.5 -129t132.5 -53z" />
    <glyph glyph-name="guilsinglleft" unicode="&#x2039;" horiz-adv-x="727" 
d="M614 1044l-204 -389l204 -389h-286l-215 389l215 389h286z" />
    <glyph glyph-name="guilsinglright" unicode="&#x203a;" horiz-adv-x="727" 
d="M399 1044l215 -389l-215 -389h-286l204 389l-204 389h286z" />
    <glyph glyph-name="fraction" unicode="&#x2044;" horiz-adv-x="362" 
d="M-369 0l885 1434h215l-885 -1434h-215z" />
    <glyph glyph-name="uni2070" unicode="&#x2070;" horiz-adv-x="841" 
d="M422 899q-174 0 -277.5 117t-103.5 317.5t103.5 315t277.5 114.5q166 0 272.5 -116.5t106.5 -313.5q0 -201 -103.5 -317.5t-275.5 -116.5zM422 1126q127 0 127 207q0 203 -127 203q-129 0 -129 -203q0 -207 129 -207z" />
    <glyph glyph-name="uni2074" unicode="&#x2074;" horiz-adv-x="729" 
d="M709 1268v-205h-91v-141h-229v141h-379v182l262 496h252l-243 -473h108v112h229v-112h91z" />
    <glyph glyph-name="uni2075" unicode="&#x2075;" horiz-adv-x="716" 
d="M408 1450q123 0 195.5 -76t72.5 -194q0 -121 -85 -201t-220 -80q-143 0 -230.5 68.5t-109.5 167.5l211 59q37 -90 118 -90q41 0 66 22.5t25 57.5q0 37 -26 60.5t-71 23.5q-63 0 -116 -31l-175 55l39 449h535v-205h-338l-6 -100q45 14 115 14z" />
    <glyph glyph-name="uni2076" unicode="&#x2076;" horiz-adv-x="700" 
d="M399 1485q119 -10 200 -89t81 -200q0 -129 -94 -213t-236 -84q-143 0 -238.5 85t-91.5 214q4 84 58 174l229 369h248zM350 1104q45 0 72 25.5t27 66.5q0 39 -27 65.5t-72 26.5t-71.5 -26.5t-26.5 -65.5q0 -41 26.5 -66.5t71.5 -25.5z" />
    <glyph glyph-name="uni2077" unicode="&#x2077;" horiz-adv-x="638" 
d="M6 1741h623v-166l-273 -653h-254l254 610h-350v209z" />
    <glyph glyph-name="uni2078" unicode="&#x2078;" horiz-adv-x="739" 
d="M582 1368q127 -68 127 -209q0 -113 -92.5 -186.5t-246 -73.5t-246.5 74t-93 186q0 141 127 209q-92 55 -92 166q0 96 83.5 162.5t221.5 66.5q135 0 219 -66.5t84 -162.5q0 -111 -92 -166zM371 1569q-39 0 -61.5 -19.5t-22.5 -50.5t22.5 -50t61.5 -19t61.5 19t22.5 50
t-22.5 50.5t-61.5 19.5zM371 1100q47 0 71.5 23.5t24.5 62.5q0 35 -25.5 59.5t-70.5 24.5t-71 -24.5t-26 -59.5q0 -39 25 -62.5t72 -23.5z" />
    <glyph glyph-name="uni2079" unicode="&#x2079;" horiz-adv-x="700" 
d="M350 1763q143 0 238.5 -85t91.5 -214q-4 -84 -57 -174l-230 -368h-248l156 256q-119 10 -200 89t-81 199q0 129 94.5 213t235.5 84zM350 1374q45 0 72 26.5t27 65.5q0 41 -27 67t-72 26t-71.5 -26t-26.5 -67q0 -39 26.5 -65.5t71.5 -26.5z" />
    <glyph glyph-name="uni2080" unicode="&#x2080;" horiz-adv-x="841" 
d="M422 -330q-174 0 -277.5 117t-103.5 317.5t103.5 315.5t277.5 115q166 0 272.5 -117t106.5 -314q0 -201 -103.5 -317.5t-275.5 -116.5zM422 -102q127 0 127 206q0 203 -127 203q-129 0 -129 -203q0 -206 129 -206z" />
    <glyph glyph-name="uni2081" unicode="&#x2081;" horiz-adv-x="587" 
d="M276 512h209v-819h-243v549l-183 -84l-59 209z" />
    <glyph glyph-name="uni2082" unicode="&#x2082;" horiz-adv-x="731" 
d="M406 -98h284v-209h-655v149l319 297q76 74 76 119q0 27 -19.5 45.5t-54.5 18.5q-80 0 -106 -125l-219 63q12 113 101 194t220 81q150 0 238 -71t88 -198q0 -70 -28.5 -122t-94.5 -109z" />
    <glyph glyph-name="uni2083" unicode="&#x2083;" horiz-adv-x="743" 
d="M526 203q80 -25 128 -88.5t48 -155.5q0 -123 -91 -206t-228 -83q-160 0 -247 79t-105 194l211 61q10 -59 46 -94t89 -35q45 0 70.5 23.5t25.5 62.5t-26.5 65.5t-81.5 26.5q-37 0 -74 -6l-35 127l125 135h-320v203h613v-164z" />
    <glyph glyph-name="uni2084" unicode="&#x2084;" horiz-adv-x="729" 
d="M709 39v-205h-91v-141h-229v141h-379v182l262 496h252l-243 -473h108v113h229v-113h91z" />
    <glyph glyph-name="uni2085" unicode="&#x2085;" horiz-adv-x="716" 
d="M408 221q123 0 195.5 -75.5t72.5 -194.5q0 -121 -85 -201t-220 -80q-143 0 -230.5 68.5t-109.5 167.5l211 59q37 -90 118 -90q41 0 66 22.5t25 57.5q0 37 -26 60.5t-71 23.5q-63 0 -116 -31l-175 55l39 449h535v-205h-338l-6 -100q45 14 115 14z" />
    <glyph glyph-name="uni2086" unicode="&#x2086;" horiz-adv-x="700" 
d="M399 256q119 -10 200 -89t81 -200q0 -129 -94 -213t-236 -84q-143 0 -238.5 85t-91.5 214q4 84 58 174l229 369h248zM350 -125q45 0 72 25.5t27 66.5q0 39 -27 65.5t-72 26.5t-71.5 -26.5t-26.5 -65.5q0 -41 26.5 -66.5t71.5 -25.5z" />
    <glyph glyph-name="uni2087" unicode="&#x2087;" horiz-adv-x="638" 
d="M6 512h623v-166l-273 -653h-254l254 610h-350v209z" />
    <glyph glyph-name="uni2088" unicode="&#x2088;" horiz-adv-x="739" 
d="M582 139q127 -68 127 -209q0 -113 -92.5 -186.5t-246 -73.5t-246.5 74t-93 186q0 141 127 209q-92 55 -92 166q0 96 83.5 163t221.5 67q135 0 219 -67t84 -163q0 -111 -92 -166zM371 340q-39 0 -61.5 -19.5t-22.5 -50t22.5 -50t61.5 -19.5t61.5 19.5t22.5 50t-22.5 50
t-61.5 19.5zM371 -129q47 0 71.5 23.5t24.5 62.5q0 35 -25.5 59.5t-70.5 24.5t-71 -24.5t-26 -59.5q0 -39 25 -62.5t72 -23.5z" />
    <glyph glyph-name="uni2089" unicode="&#x2089;" horiz-adv-x="700" 
d="M350 535q143 0 238.5 -85t91.5 -214q-4 -84 -57 -175l-230 -368h-248l156 256q-119 10 -200 89t-81 200q0 129 94.5 213t235.5 84zM350 145q45 0 72 27t27 66q0 41 -27 66.5t-72 25.5t-71.5 -25.5t-26.5 -66.5q0 -39 26.5 -66t71.5 -27z" />
    <glyph glyph-name="franc" unicode="&#x20a3;" horiz-adv-x="1292" 
d="M1200 1124h-680v-243h617v-303h-617v-187h320v-174h-320v-217h-340v217h-119v174h119v1043h1020v-310z" />
    <glyph glyph-name="lira" unicode="&#x20a4;" horiz-adv-x="1306" 
d="M551 315h694v-315h-1163v315h133v115h-109v174h109v109h-109v174h109v117q0 219 134 338.5t358 119.5q188 0 317 -114.5t147 -272.5l-305 -88q-35 172 -168 172q-70 0 -108.5 -47t-38.5 -129v-96h457v-174h-457v-109h457v-174h-457v-115z" />
    <glyph glyph-name="Euro" unicode="&#x20ac;" horiz-adv-x="1546" 
d="M1278 397l207 -264q-201 -162 -488 -162q-262 0 -458.5 142.5t-266.5 375.5h-231v175h201q-2 18 -2 53q0 37 2 55h-201v174h231q72 231 266.5 373.5t452.5 142.5q285 0 490 -162l-207 -264q-113 106 -281 107q-233 0 -348 -197h461v-174h-516q-2 -18 -2 -53q0 -18 4 -55
h514v-175h-459q53 -90 142.5 -144t203.5 -54q174 0 285 106z" />
    <glyph glyph-name="uni20BF" unicode="&#x20bf;" horiz-adv-x="1517" 
d="M1425 410q0 -182 -121.5 -291t-336.5 -119v-297h-238v297h-170v-297h-237v297h-261v295h168v846h-168v293h261v297h237v-297h170v297h238v-301q186 -18 296.5 -123t110.5 -263q0 -195 -170 -294q221 -109 221 -340zM889 1141h-328v-283h328q66 0 110.5 42t44.5 101.5
t-44.5 100.5t-110.5 39zM926 295q74 0 119 43t45 102q0 63 -44.5 105.5t-119.5 42.5h-365v-293h365z" />
    <glyph glyph-name="afii61352" unicode="&#x2116;" horiz-adv-x="2293" 
d="M1876 766q-154 0 -257 100.5t-103 248t103 247.5t257 100q152 0 254 -100t102 -248q0 -145 -103 -246.5t-253 -101.5zM1044 612v822h340v-1434h-276l-645 821v-821h-340v1434h276zM1876 1245q-61 0 -98 -37t-37 -94q0 -55 38 -93t97 -38q55 0 93 39t38 92q0 55 -38 93
t-93 38zM1552 449v225h643v-225h-643z" />
    <glyph glyph-name="trademark" unicode="&#x2122;" horiz-adv-x="1492" 
d="M254 778v486h-193v170h574v-170h-197v-486h-184zM696 778v656h185l182 -267l180 267h189v-656h-181v367l-186 -258l-193 258v-367h-176z" />
    <glyph glyph-name="estimated" unicode="&#x212e;" horiz-adv-x="1701" 
d="M870 -23q-344 0 -573 214.5t-229 529.5q0 305 229 521t555 216t554 -216t228 -521v-33h-1259v-432q184 -217 495 -217q287 0 469 192h162q-260 -254 -631 -254zM375 750h952v430q-184 217 -475 217q-293 0 -477 -217v-430z" />
    <glyph glyph-name="oneeighth" unicode="&#x215b;" horiz-adv-x="1689" 
d="M242 614v549l-183 -84l-59 209l276 146h209v-820h-243zM1104 1434h215l-885 -1434h-215zM1532 446q127 -68 127 -208q0 -113 -92 -187t-246 -74t-247 74t-93 187q0 141 127 208q-92 55 -92 166q0 96 84 163t221 67q135 0 219 -66.5t84 -163.5q0 -111 -92 -166zM1321 647
q-39 0 -61.5 -19.5t-22.5 -50t22.5 -50t61.5 -19.5t61.5 19.5t22.5 50t-22.5 50t-61.5 19.5zM1321 178q47 0 71.5 23.5t24.5 62.5q0 35 -25.5 59.5t-70.5 24.5t-70.5 -24.5t-25.5 -59.5q0 -39 24.5 -62.5t71.5 -23.5z" />
    <glyph glyph-name="threeeighths" unicode="&#x215c;" horiz-adv-x="1845" 
d="M702 881q0 -123 -91 -206t-228 -83q-160 0 -247 79t-105 193l211 62q10 -59 46 -94t89 -35q45 0 70.5 23.5t25.5 62.5t-26.5 65.5t-81.5 26.5q-37 0 -74 -6l-35 127l125 135h-320v203h613v-164l-148 -146q80 -25 128 -88t48 -155zM1260 1434h215l-885 -1434h-215z
M1688 446q127 -68 127 -208q0 -113 -92.5 -187t-246 -74t-246.5 74t-93 187q0 141 127 208q-92 55 -93 166q0 96 84 163t222 67q135 0 219 -66.5t84 -163.5q0 -111 -92 -166zM1477 647q-39 0 -61.5 -19.5t-22.5 -50t22.5 -50t61.5 -19.5t61.5 19.5t22.5 50t-22.5 50
t-61.5 19.5zM1477 178q47 0 71.5 23.5t24.5 62.5q0 35 -25.5 59.5t-70.5 24.5t-71 -24.5t-26 -59.5q0 -39 25 -62.5t72 -23.5z" />
    <glyph glyph-name="fiveeighths" unicode="&#x215d;" horiz-adv-x="1818" 
d="M676 872q0 -121 -85 -200.5t-220 -79.5q-143 0 -230.5 68.5t-109.5 166.5l211 60q37 -90 118 -90q41 0 66 22.5t25 57.5q0 37 -26 60.5t-71 23.5q-63 0 -116 -31l-175 55l39 449h535v-205h-338l-6 -101q45 14 115 15q123 0 195.5 -76t72.5 -195zM1233 1434h215
l-885 -1434h-215zM1661 446q127 -68 127 -208q0 -113 -92 -187t-246 -74t-247 74t-93 187q0 141 127 208q-92 55 -92 166q0 96 84 163t221 67q135 0 219 -66.5t84 -163.5q0 -111 -92 -166zM1450 647q-39 0 -61.5 -19.5t-22.5 -50t22.5 -50t61.5 -19.5t61.5 19.5t22.5 50
t-22.5 50t-61.5 19.5zM1450 178q47 0 71.5 23.5t24.5 62.5q0 35 -25.5 59.5t-70.5 24.5t-70.5 -24.5t-25.5 -59.5q0 -39 24.5 -62.5t71.5 -23.5z" />
    <glyph glyph-name="seveneighths" unicode="&#x215e;" horiz-adv-x="1740" 
d="M356 614h-254l254 611h-350v209h623v-166zM1155 1434h215l-885 -1434h-215zM1583 446q127 -68 127 -208q0 -113 -92 -187t-245.5 -74t-247 74t-93.5 187q0 141 127 208q-92 55 -92 166q0 96 84 163t221 67q135 0 219 -66.5t84 -163.5q0 -111 -92 -166zM1372 647
q-39 0 -61.5 -19.5t-22.5 -50t22.5 -50t61.5 -19.5t61.5 19.5t22.5 50t-22.5 50t-61.5 19.5zM1372 178q47 0 71.5 23.5t24.5 62.5q0 35 -25.5 59.5t-70.5 24.5t-70.5 -24.5t-25.5 -59.5q0 -39 24.5 -62.5t71.5 -23.5z" />
    <glyph glyph-name="arrowleft" unicode="&#x2190;" horiz-adv-x="1689" 
d="M1577 815v-287h-922l346 -340l-202 -202l-686 686l686 686l202 -203l-346 -340h922z" />
    <glyph glyph-name="arrowup" unicode="&#x2191;" horiz-adv-x="1597" 
d="M1485 778l-203 -203l-330 336v-911h-307v911l-330 -336l-202 203l686 686z" />
    <glyph glyph-name="arrowright" unicode="&#x2192;" horiz-adv-x="1689" 
d="M891 1364l686 -686l-686 -686l-203 203l346 340h-921v286h921l-346 340z" />
    <glyph glyph-name="arrowdown" unicode="&#x2193;" horiz-adv-x="1597" 
d="M1282 858l203 -203l-686 -686l-686 686l202 203l330 -336v912h307v-912z" />
    <glyph glyph-name="arrowboth" unicode="&#x2194;" horiz-adv-x="2338" 
d="M1540 1364l686 -686l-686 -686l-203 203l346 340h-1028l346 -340l-202 -203l-686 686l686 686l202 -203l-346 -340h1028l-346 340z" />
    <glyph glyph-name="arrowupdn" unicode="&#x2195;" horiz-adv-x="1597" 
d="M952 174l330 336l203 -203l-686 -686l-686 686l202 203l330 -336v1008l-330 -336l-202 203l686 686l686 -686l-203 -203l-330 336v-1008z" />
    <glyph glyph-name="uni2196" unicode="&#x2196;" horiz-adv-x="1366" 
d="M1253 236l-211 -211l-647 647l4 -475l-286 -2v970h968l2 -286l-477 4z" />
    <glyph glyph-name="uni2197" unicode="&#x2197;" horiz-adv-x="1366" 
d="M283 1227h970v-969l-286 -2l4 477l-647 -647l-211 211l647 647l-475 -4z" />
    <glyph glyph-name="uni2198" unicode="&#x2198;" horiz-adv-x="1366" 
d="M967 1075l286 2v-971h-968l-2 287l477 -4l-647 647l211 211l647 -647z" />
    <glyph glyph-name="uni2199" unicode="&#x2199;" horiz-adv-x="1366" 
d="M606 330l475 4l2 -287h-970v969l286 2l-4 -477l647 647l211 -211z" />
    <glyph glyph-name="partialdiff" unicode="&#x2202;" horiz-adv-x="1310" 
d="M618 -29q-221 0 -378.5 148.5t-157.5 363.5q0 213 141.5 354.5t360.5 141.5q90 0 178 -33t143 -88q-18 139 -108 234.5t-226 95.5q-195 0 -338 -139l-69 260q184 154 446 153q281 0 450 -212t169 -554q0 -334 -167.5 -529.5t-443.5 -195.5zM631 260q113 0 185.5 83
t80.5 192q-29 61 -108.5 114t-167.5 53q-96 0 -160 -63.5t-64 -151.5q0 -96 65 -161.5t169 -65.5z" />
    <glyph glyph-name="emptyset" unicode="&#x2205;" horiz-adv-x="1034" 
d="M905 958q102 -127 103 -303q2 -203 -136.5 -342t-341.5 -139q-174 0 -303 107l-131 -131l-86 86l133 133q-90 125 -90 286q0 203 137.5 343.5t339.5 138.5q162 0 289 -95l121 121l84 -86zM274 655q0 -70 31 -125l350 349q-55 31 -127 30q-109 0 -181.5 -72.5
t-72.5 -181.5zM528 401q109 0 182.5 73t75.5 181q0 78 -43 142l-354 -355q59 -41 139 -41z" />
    <glyph glyph-name="product" unicode="&#x220f;" horiz-adv-x="1343" 
d="M1231 1495v-1925h-328v1628h-463v-1628h-327v1925h1118z" />
    <glyph glyph-name="summation" unicode="&#x2211;" horiz-adv-x="1359" 
d="M504 -113h774v-297h-1196v260l551 709l-516 676v260h1120v-297h-700l481 -641z" />
    <glyph glyph-name="minus" unicode="&#x2212;" horiz-adv-x="1146" 
d="M113 590v256h921v-256h-921z" />
    <glyph glyph-name="radical" unicode="&#x221a;" horiz-adv-x="1538" 
d="M1231 1618h328l-562 -1804h-348l-293 768h-274v276h504l229 -680z" />
    <glyph glyph-name="infinity" unicode="&#x221e;" horiz-adv-x="1769" 
d="M1274 1147q172 0 293 -127t121 -303q0 -180 -121 -305t-293 -125q-219 0 -387 209q-172 -209 -391 -209q-172 0 -293 125t-121 305q0 176 121 303t293 127q219 0 391 -213q168 213 387 213zM506 547q113 0 252 168q-139 168 -252 168q-66 0 -113 -49.5t-47 -119
t47 -118.5t113 -49zM1266 547q66 0 112.5 49t46.5 118.5t-47 119t-112 49.5q-113 0 -252 -168q139 -168 252 -168z" />
    <glyph glyph-name="integral" unicode="&#x222b;" horiz-adv-x="1214" 
d="M264 -319q-170 0 -264 88l121 258q51 -57 119 -58q123 0 143 142l145 1079q57 426 422 426q170 0 264 -88l-120 -258q-51 57 -119 57q-123 0 -144 -141l-145 -1080q-57 -425 -422 -425z" />
    <glyph glyph-name="approxequal" unicode="&#x2248;" horiz-adv-x="1241" 
d="M403 731l-290 84q0 129 67.5 223.5t204.5 94.5q96 0 226 -57.5t153 -57.5q74 0 74 115l290 -84q0 -131 -66.5 -224.5t-201.5 -93.5q-96 0 -227 57.5t-154 57.5q-76 0 -76 -115zM403 307l-290 84q0 129 67.5 223.5t204.5 94.5q96 0 226 -57.5t153 -57.5q74 0 74 115
l290 -84q0 -131 -66.5 -224.5t-201.5 -93.5q-96 0 -227 57.5t-154 57.5q-76 0 -76 -115z" />
    <glyph glyph-name="notequal" unicode="&#x2260;" horiz-adv-x="1146" 
d="M1034 795h-313l-68 -154h381v-256h-491l-111 -252h-225l110 252h-204v256h315l68 154h-383v256h493l109 249h225l-109 -249h203v-256z" />
    <glyph glyph-name="lessequal" unicode="&#x2264;" horiz-adv-x="1157" 
d="M1034 1386v-276l-618 -219l618 -221v-277l-921 348v297zM113 86v256h921v-256h-921z" />
    <glyph glyph-name="greaterequal" unicode="&#x2265;" horiz-adv-x="1157" 
d="M123 1386l921 -348v-297l-921 -348v277l618 221l-618 219v276zM123 86v256h921v-256h-921z" />
    <glyph glyph-name="lozenge" unicode="&#x25ca;" horiz-adv-x="1308" 
d="M831 1434l396 -717l-396 -717h-352l-397 717l397 717h352zM655 295l232 422l-232 422l-233 -422z" />
    <glyph glyph-name="i.aalt" horiz-adv-x="573" 
d="M286.5 1161q-73.5 0 -125.5 51.5t-52 124.5q0 72 52 123t125.5 51t126 -51t52.5 -123q0 -74 -52.5 -125t-126 -51zM123 0v1044h328v-1044h-328z" />
    <glyph glyph-name="f_f_j.dlig" horiz-adv-x="2037" 
d="M1942 1044v-1044q0 -217 -95.5 -338t-290.5 -121q-102 0 -206 45l71 250q37 -20 80 -20q113 0 113 153v789h-369v-758h-327v758h-369v-758h-328v758h-190v286h190v74q0 188 105.5 297t302.5 109q145 0 245 -45l-77 -260q-53 23 -117 22q-53 0 -92 -33.5t-39 -89.5v-74
h369v74q0 188 112.5 297t325.5 109q223 0 381 -90l-78 -260q-133 68 -264 67q-61 0 -105.5 -33.5t-44.5 -89.5v-74h697z" />
    <glyph glyph-name="f_j.dlig" horiz-adv-x="1341" 
d="M1245 1044v-1044q0 -217 -95 -338t-290 -121q-102 0 -207 45l72 250q37 -20 80 -20q113 0 113 153v789h-369v-758h-328v758h-190v286h190v74q0 188 112.5 297t325.5 109q223 0 381 -90l-77 -260q-133 68 -265 67q-61 0 -105 -33.5t-44 -89.5v-74h696z" />
    <glyph glyph-name="f_t.dlig" horiz-adv-x="1572" 
d="M1454 295l78 -260q-129 -51 -256 -51q-184 0 -276.5 104.5t-92.5 288.5v381h-358v-758h-328v758h-190v286h190v74q0 188 105.5 297t302.5 109q115 0 194 -29l-78 -260q-31 6 -65 6q-61 0 -96 -31.5t-35 -91.5v-74h358v328h328v-328h281v-286h-281v-381q0 -109 108 -109
q60 0 111 27z" />
    <glyph glyph-name="t_t.dlig" horiz-adv-x="1564" 
d="M1446 295l78 -260q-129 -51 -256 -51q-184 0 -276.5 104.5t-92.5 288.5v381h-389v-381q0 -109 108 -109q59 0 111 27l78 -260q-129 -51 -256 -51q-184 0 -276.5 104.5t-92.5 288.5v381h-162v286h162v328h328v-328h389v328h328v-328h280v-286h-280v-381q0 -109 108 -109
q60 0 111 27z" />
    <glyph glyph-name="zero.tnum" horiz-adv-x="1259" 
d="M630.5 -29q-284.5 0 -447.5 207t-163 539t163 538.5t447.5 206.5t446.5 -206.5t162 -538.5t-162 -539t-446.5 -207zM631 279q135 0 201.5 115.5t66.5 322.5t-66.5 322.5t-201.5 115.5t-203 -115.5t-68 -322.5t68 -322.5t203 -115.5z" />
    <glyph glyph-name="one.tnum" horiz-adv-x="1259" 
d="M860 307h258v-307h-942v307h340v752l-303 -139l-82 288l438 226h291v-1127z" />
    <glyph glyph-name="two.tnum" horiz-adv-x="1259" 
d="M637 307h541v-307h-1063v227l553 514q80 72 116.5 126.5t36.5 115.5q0 82 -49 129t-135 47q-84 0 -144.5 -58.5t-80.5 -154.5l-306 88q23 176 167.5 302t355.5 126q240 0 385 -119.5t145 -338.5q0 -129 -62.5 -233.5t-195.5 -225.5z" />
    <glyph glyph-name="three.tnum" horiz-adv-x="1259" 
d="M850 895q154 -37 248 -148.5t94 -279.5q0 -209 -151.5 -352.5t-376.5 -143.5q-254 0 -399.5 132.5t-176.5 318.5l301 86q18 -98 89 -170t165 -72q102 0 161.5 59.5t59.5 141.5t-57 140.5t-158 58.5q-76 0 -129 -27l-55 197l231 294h-563v304h1010v-224z" />
    <glyph glyph-name="four.tnum" horiz-adv-x="1259" 
d="M1235 557v-299h-170v-258h-340v258h-666v246l473 930h365l-440 -877h268v258h340v-258h170z" />
    <glyph glyph-name="five.tnum" horiz-adv-x="1259" 
d="M719 944q205 0 339 -138t134 -339q0 -211 -149.5 -353.5t-376.5 -142.5q-231 0 -376 115t-192 285l305 86q29 -82 94.5 -136.5t145.5 -54.5q102 0 161.5 58.5t59.5 148.5t-58 147.5t-165 57.5q-123 0 -213 -62l-270 80l61 738h907v-304h-606l-16 -221q98 35 215 35z" />
    <glyph glyph-name="six.tnum" horiz-adv-x="1259" 
d="M698 991q223 -16 365.5 -155.5t142.5 -348.5q0 -221 -159.5 -368.5t-399 -147.5t-399.5 146.5t-160 369.5q0 143 100 304l408 643h383zM647.5 274q100.5 0 160.5 59.5t60 153.5q0 90 -60 150.5t-161 60.5q-98 0 -159.5 -60t-61.5 -151q0 -94 60.5 -153.5t161 -59.5z" />
    <glyph glyph-name="seven.tnum" horiz-adv-x="1259" 
d="M123 1434h1053v-232l-525 -1202h-360l495 1126h-663v308z" />
    <glyph glyph-name="eight.tnum" horiz-adv-x="1259" 
d="M973 782q238 -111 237 -362q0 -190 -157.5 -319.5t-411.5 -129.5q-256 0 -412.5 128t-156.5 321q0 254 237 362q-176 94 -176 293q0 164 139.5 275.5t368.5 111.5t368.5 -111.5t139.5 -275.5q0 -199 -176 -293zM641 1198q-82 0 -131 -45t-49 -109q0 -66 49 -110.5
t131 -44.5t131 46t49 109.5t-49 108.5t-131 45zM641 254q104 0 165.5 55.5t61.5 139.5q0 86 -61.5 141t-165.5 55q-106 0 -166.5 -55t-60.5 -141q0 -84 60.5 -139.5t166.5 -55.5z" />
    <glyph glyph-name="nine.tnum" horiz-adv-x="1259" 
d="M653.5 1462q239.5 0 399 -146.5t159.5 -369.5q0 -143 -100 -303l-407 -643h-383l280 442q-223 16 -365.5 155.5t-142.5 348.5q0 221 160 368.5t399.5 147.5zM653 735q98 0 159.5 60.5t61.5 150.5q0 94 -60 153.5t-160.5 59.5t-161 -59.5t-60.5 -153.5q0 -90 60.5 -150.5
t160.5 -60.5z" />
    <glyph glyph-name="zero.dnom" horiz-adv-x="841" 
d="M422 -23q-174 0 -277.5 117t-103.5 317.5t103.5 315.5t277.5 115q166 0 272.5 -117t106.5 -313q0 -201 -103.5 -318t-275.5 -117zM422 205q127 0 127 207q0 203 -127 202q-129 0 -129 -202q0 -207 129 -207z" />
    <glyph glyph-name="one.dnom" horiz-adv-x="587" 
d="M276 819h209v-819h-243v549l-183 -84l-59 209z" />
    <glyph glyph-name="two.dnom" horiz-adv-x="731" 
d="M406 209h284v-209h-655v150l319 296q76 74 76 119q0 27 -19.5 45.5t-54.5 18.5q-80 0 -106 -125l-219 63q12 113 101 194t220 81q150 0 238 -71t88 -198q0 -70 -28.5 -122t-94.5 -109z" />
    <glyph glyph-name="three.dnom" horiz-adv-x="743" 
d="M526 510q80 -25 128 -88.5t48 -155.5q0 -123 -91 -206t-228 -83q-160 0 -247 79t-105 194l211 61q10 -59 46 -94t89 -35q45 0 70.5 23.5t25.5 62.5t-26.5 65.5t-81.5 26.5q-37 0 -74 -6l-35 127l125 135h-320v203h613v-164z" />
    <glyph glyph-name="four.dnom" horiz-adv-x="729" 
d="M709 346v-205h-91v-141h-229v141h-379v183l262 495h252l-243 -473h108v113h229v-113h91z" />
    <glyph glyph-name="five.dnom" horiz-adv-x="716" 
d="M408 528q123 0 195.5 -75.5t72.5 -194.5q0 -121 -85 -201t-220 -80q-143 0 -230.5 69t-109.5 167l211 59q37 -90 118 -90q41 0 66 22.5t25 57.5q0 37 -26 60.5t-71 23.5q-63 0 -116 -31l-175 56l39 448h535v-205h-338l-6 -100q45 14 115 14z" />
    <glyph glyph-name="six.dnom" horiz-adv-x="700" 
d="M399 563q119 -10 200 -89t81 -200q0 -129 -94 -213t-236 -84q-143 0 -238.5 85t-91.5 214q4 84 58 175l229 368h248zM350 182q45 0 72 25.5t27 66.5q0 39 -27 66t-72 27t-71.5 -27t-26.5 -66q0 -41 26.5 -66.5t71.5 -25.5z" />
    <glyph glyph-name="seven.dnom" horiz-adv-x="638" 
d="M6 819h623v-166l-273 -653h-254l254 610h-350v209z" />
    <glyph glyph-name="eight.dnom" horiz-adv-x="739" 
d="M582 446q127 -68 127 -208q0 -113 -92.5 -187t-246 -74t-246.5 74t-93 187q0 141 127 208q-92 55 -92 166q0 96 83.5 163t221.5 67q135 0 219 -66.5t84 -163.5q0 -111 -92 -166zM371 647q-39 0 -61.5 -19.5t-22.5 -50t22.5 -50t61.5 -19.5t61.5 19.5t22.5 50t-22.5 50
t-61.5 19.5zM371 178q47 0 71.5 23.5t24.5 62.5q0 35 -25.5 59.5t-70.5 24.5t-71 -24.5t-26 -59.5q0 -39 25 -62.5t72 -23.5z" />
    <glyph glyph-name="nine.dnom" horiz-adv-x="700" 
d="M350 842q143 0 238.5 -85t91.5 -214q-4 -84 -57 -174l-230 -369h-248l156 256q-119 10 -200 89t-81 200q0 129 94.5 213t235.5 84zM350 453q45 0 72 26.5t27 65.5q0 41 -27 66.5t-72 25.5t-71.5 -25.5t-26.5 -66.5q0 -39 26.5 -65.5t71.5 -26.5z" />
    <glyph glyph-name="zero.numr" horiz-adv-x="841" 
d="M422 592q-174 0 -277.5 116.5t-103.5 317.5t103.5 315.5t277.5 114.5q166 0 272.5 -116.5t106.5 -313.5q0 -201 -103.5 -317.5t-275.5 -116.5zM422 819q127 0 127 207q0 203 -127 203q-129 0 -129 -203q0 -207 129 -207z" />
    <glyph glyph-name="one.numr" horiz-adv-x="587" 
d="M276 1434h209v-820h-243v549l-183 -84l-59 209z" />
    <glyph glyph-name="two.numr" horiz-adv-x="731" 
d="M406 823h284v-209h-655v150l319 297q76 74 76 119q0 27 -19.5 45t-54.5 18q-80 0 -106 -125l-219 64q12 113 101 193.5t220 80.5q150 0 238 -70.5t88 -197.5q0 -70 -28.5 -122t-94.5 -110z" />
    <glyph glyph-name="three.numr" horiz-adv-x="743" 
d="M526 1124q80 -25 128 -88t48 -155q0 -123 -91 -206t-228 -83q-160 0 -247 79t-105 193l211 62q10 -59 46 -94t89 -35q45 0 70.5 23.5t25.5 62.5t-26.5 65.5t-81.5 26.5q-37 0 -74 -6l-35 127l125 135h-320v203h613v-164z" />
    <glyph glyph-name="four.numr" horiz-adv-x="729" 
d="M709 961v-205h-91v-142h-229v142h-379v182l262 496h252l-243 -473h108v112h229v-112h91z" />
    <glyph glyph-name="five.numr" horiz-adv-x="716" 
d="M408 1143q123 0 195.5 -76t72.5 -195q0 -121 -85 -200.5t-220 -79.5q-143 0 -230.5 68.5t-109.5 166.5l211 60q37 -90 118 -90q41 0 66 22.5t25 57.5q0 37 -26 60.5t-71 23.5q-63 0 -116 -31l-175 55l39 449h535v-205h-338l-6 -101q45 15 115 15z" />
    <glyph glyph-name="six.numr" horiz-adv-x="700" 
d="M399 1178q119 -10 200 -89t81 -200q0 -129 -94 -213t-236 -84q-143 0 -238.5 85t-91.5 214q4 84 58 174l229 369h248zM350 797q45 0 72 25.5t27 66.5q0 39 -27 65.5t-72 26.5t-71.5 -26.5t-26.5 -65.5q0 -41 26.5 -66.5t71.5 -25.5z" />
    <glyph glyph-name="seven.numr" horiz-adv-x="638" 
d="M6 1434h623v-166l-273 -654h-254l254 611h-350v209z" />
    <glyph glyph-name="eight.numr" horiz-adv-x="739" 
d="M582 1061q127 -68 127 -209q0 -113 -92.5 -186.5t-246 -73.5t-246.5 73.5t-93 186.5q0 141 127 209q-92 55 -92 166q0 96 83.5 162.5t221.5 66.5q135 0 219 -66.5t84 -162.5q0 -111 -92 -166zM371 1262q-39 0 -61.5 -19.5t-22.5 -50.5t22.5 -50.5t61.5 -19.5t61.5 19.5
t22.5 50.5t-22.5 50.5t-61.5 19.5zM371 793q47 0 71.5 23.5t24.5 62.5q0 35 -25.5 59.5t-70.5 24.5t-71 -25t-26 -59q0 -39 25 -62.5t72 -23.5z" />
    <glyph glyph-name="nine.numr" horiz-adv-x="700" 
d="M350 1456q143 0 238.5 -85t91.5 -214q-4 -84 -57 -174l-230 -369h-248l156 256q-119 10 -200 89t-81 200q0 129 94.5 213t235.5 84zM350 1067q45 0 72 26.5t27 65.5q0 41 -27 66.5t-72 25.5t-71.5 -25.5t-26.5 -66.5q0 -39 26.5 -65.5t71.5 -26.5z" />
    </font>
</defs>
</svg>
